<mxfile host="app.diagrams.net" modified="2023-12-22T02:42:30.277Z" agent="Mozilla/5.0 (Macintosh; Intel Mac OS X 10_15_7) AppleWebKit/537.36 (KHTML, like Gecko) Chrome/120.0.0.0 Safari/537.36" etag="062BkAr0oUavSgciw3E8" version="22.1.11" type="github">
  <diagram name="第 1 页" id="MjIh715V6dugXCP1k9l6">
    <mxGraphModel dx="2320" dy="2010" grid="1" gridSize="10" guides="1" tooltips="1" connect="1" arrows="1" fold="1" page="1" pageScale="1" pageWidth="827" pageHeight="1169" math="0" shadow="0">
      <root>
        <mxCell id="0" />
        <mxCell id="1" parent="0" />
        <UserObject label="" plantUmlData="{&quot;data&quot;:&quot;@startuml\n&#39; 标题\ntitle User Login System Swimlane Diagram\n\n|Visitor or Administrator|\nstart\n:User enters login page;\nswitch(forget password?)\ncase (Yes)\n    |Visitor or Administrator|\n    :User enters code reset page;\n    |System|\n    :System provides password recovery function;\n    |Visitor or Administrator|\n    :Reset password;\ncase (No)\n    |Visitor or Administrator|\n    :User enters phone number and password;\n    &#39; 系统判断信息是否正确\n    |System|\n    &#39; 用户登录成功\n    if (Login information is valid?) then (Yes)\n        :System displays login success message;\n        |Visitor or Administrator|\n        :User accesses main page or relevant function page;\n        |System|\n        if (Login from multiple devices detected?) then (Yes)\n            :System forces logout from one of the devices;\n            stop\n        else(No)\n            stop\n        endif\n        |System|\n        &#39; 用户登录失败，提示失败信息，并且重新登录\n    else (No)\n        :System prompts error message and requires re-entry;\n        end\n    endif\nendswitch\n\n\nstop\n@enduml\n&quot;,&quot;format&quot;:&quot;svg&quot;}" id="c8ZHbjYaLbXA3wWcWkqa-1">
          <mxCell style="shape=image;noLabel=1;verticalAlign=top;aspect=fixed;imageAspect=0;image=data:image/svg+xml,PD94bWwgdmVyc2lvbj0iMS4wIiBlbmNvZGluZz0idXMtYXNjaWkiIHN0YW5kYWxvbmU9Im5vIj8+PHN2ZyB4bWxucz0iaHR0cDovL3d3dy53My5vcmcvMjAwMC9zdmciIHhtbG5zOnhsaW5rPSJodHRwOi8vd3d3LnczLm9yZy8xOTk5L3hsaW5rIiBjb250ZW50U3R5bGVUeXBlPSJ0ZXh0L2NzcyIgaGVpZ2h0PSI2NTBweCIgcHJlc2VydmVBc3BlY3RSYXRpbz0ibm9uZSIgc3R5bGU9IndpZHRoOjE4NDlweDtoZWlnaHQ6NjUwcHg7YmFja2dyb3VuZDojRkZGRkZGOyIgdmVyc2lvbj0iMS4xIiB2aWV3Qm94PSIwIDAgMTg0OSA2NTAiIHdpZHRoPSIxODQ5cHgiIHpvb21BbmRQYW49Im1hZ25pZnkiPjxkZWZzLz48Zz48dGV4dCBmaWxsPSIjMDAwMDAwIiBmb250LWZhbWlseT0ic2Fucy1zZXJpZiIgZm9udC1zaXplPSIxNCIgZm9udC13ZWlnaHQ9ImJvbGQiIGxlbmd0aEFkanVzdD0ic3BhY2luZyIgdGV4dExlbmd0aD0iMjQyIiB4PSI4MDIuMzc1IiB5PSIzMy4yMzQ0Ij5Vc2VyIExvZ2luIFN5c3RlbSBTd2ltbGFuZSBEaWFncmFtPC90ZXh0PjxyZWN0IGZpbGw9Im5vbmUiIGhlaWdodD0iMTkuMjY1NiIgc3R5bGU9InN0cm9rZTpub25lO3N0cm9rZS13aWR0aDoxLjA7IiB3aWR0aD0iMTgxNi43NSIgeD0iMTUiIHk9IjQ2Ljk4NDQiLz48ZWxsaXBzZSBjeD0iNDU3Ljc1IiBjeT0iODEuMjUiIGZpbGw9IiMyMjIyMjIiIHJ4PSIxMCIgcnk9IjEwIiBzdHlsZT0ic3Ryb2tlOiMyMjIyMjI7c3Ryb2tlLXdpZHRoOjEuMDsiLz48cmVjdCBmaWxsPSIjRjFGMUYxIiBoZWlnaHQ9IjMyLjg0MzgiIHJ4PSIxMi41IiByeT0iMTIuNSIgc3R5bGU9InN0cm9rZTojMTgxODE4O3N0cm9rZS13aWR0aDowLjU7IiB3aWR0aD0iMTY4IiB4PSIzNzMuNzUiIHk9IjExMS4yNSIvPjx0ZXh0IGZpbGw9IiMwMDAwMDAiIGZvbnQtZmFtaWx5PSJzYW5zLXNlcmlmIiBmb250LXNpemU9IjEyIiBsZW5ndGhBZGp1c3Q9InNwYWNpbmciIHRleHRMZW5ndGg9IjE0OCIgeD0iMzgzLjc1IiB5PSIxMzIuNTkzOCI+VXNlciBlbnRlcnMgbG9naW4gcGFnZTwvdGV4dD48cG9seWdvbiBmaWxsPSIjRjFGMUYxIiBwb2ludHM9IjQwOS43NSwxNjQuMDkzOCw1MDUuNzUsMTY0LjA5MzgsNTE3Ljc1LDE3Ni4wOTM4LDUwNS43NSwxODguMDkzOCw0MDkuNzUsMTg4LjA5MzgsMzk3Ljc1LDE3Ni4wOTM4LDQwOS43NSwxNjQuMDkzOCIgc3R5bGU9InN0cm9rZTojMTgxODE4O3N0cm9rZS13aWR0aDowLjU7Ii8+PHRleHQgZmlsbD0iIzAwMDAwMCIgZm9udC1mYW1pbHk9InNhbnMtc2VyaWYiIGZvbnQtc2l6ZT0iMTEiIGxlbmd0aEFkanVzdD0ic3BhY2luZyIgdGV4dExlbmd0aD0iOTYiIHg9IjQwOS43NSIgeT0iMTgwLjYwNTUiPmZvcmdldCBwYXNzd29yZD88L3RleHQ+PHJlY3QgZmlsbD0iI0YxRjFGMSIgaGVpZ2h0PSIzMi44NDM4IiByeD0iMTIuNSIgcnk9IjEyLjUiIHN0eWxlPSJzdHJva2U6IzE4MTgxODtzdHJva2Utd2lkdGg6MC41OyIgd2lkdGg9IjIwMiIgeD0iMjEiIHk9IjIyMS42NDA2Ii8+PHRleHQgZmlsbD0iIzAwMDAwMCIgZm9udC1mYW1pbHk9InNhbnMtc2VyaWYiIGZvbnQtc2l6ZT0iMTIiIGxlbmd0aEFkanVzdD0ic3BhY2luZyIgdGV4dExlbmd0aD0iMTgyIiB4PSIzMSIgeT0iMjQyLjk4NDQiPlVzZXIgZW50ZXJzIGNvZGUgcmVzZXQgcGFnZTwvdGV4dD48cmVjdCBmaWxsPSIjRjFGMUYxIiBoZWlnaHQ9IjMyLjg0MzgiIHJ4PSIxMi41IiByeT0iMTIuNSIgc3R5bGU9InN0cm9rZTojMTgxODE4O3N0cm9rZS13aWR0aDowLjU7IiB3aWR0aD0iMTE1IiB4PSI2NC41IiB5PSIzNDIuMzI4MSIvPjx0ZXh0IGZpbGw9IiMwMDAwMDAiIGZvbnQtZmFtaWx5PSJzYW5zLXNlcmlmIiBmb250LXNpemU9IjEyIiBsZW5ndGhBZGp1c3Q9InNwYWNpbmciIHRleHRMZW5ndGg9Ijk1IiB4PSI3NC41IiB5PSIzNjMuNjcxOSI+UmVzZXQgcGFzc3dvcmQ8L3RleHQ+PHJlY3QgZmlsbD0iI0YxRjFGMSIgaGVpZ2h0PSIzMi44NDM4IiByeD0iMTIuNSIgcnk9IjEyLjUiIHN0eWxlPSJzdHJva2U6IzE4MTgxODtzdHJva2Utd2lkdGg6MC41OyIgd2lkdGg9IjI3MSIgeD0iNDgwLjI1IiB5PSIyMjEuNjQwNiIvPjx0ZXh0IGZpbGw9IiMwMDAwMDAiIGZvbnQtZmFtaWx5PSJzYW5zLXNlcmlmIiBmb250LXNpemU9IjEyIiBsZW5ndGhBZGp1c3Q9InNwYWNpbmciIHRleHRMZW5ndGg9IjI1MSIgeD0iNDkwLjI1IiB5PSIyNDIuOTg0NCI+VXNlciBlbnRlcnMgcGhvbmUgbnVtYmVyIGFuZCBwYXNzd29yZDwvdGV4dD48cmVjdCBmaWxsPSIjRjFGMUYxIiBoZWlnaHQ9IjMyLjg0MzgiIHJ4PSIxMi41IiByeT0iMTIuNSIgc3R5bGU9InN0cm9rZTojMTgxODE4O3N0cm9rZS13aWR0aDowLjU7IiB3aWR0aD0iMzQ2IiB4PSIyMzMiIHk9IjM4Ni4zMjgxIi8+PHRleHQgZmlsbD0iIzAwMDAwMCIgZm9udC1mYW1pbHk9InNhbnMtc2VyaWYiIGZvbnQtc2l6ZT0iMTIiIGxlbmd0aEFkanVzdD0ic3BhY2luZyIgdGV4dExlbmd0aD0iMzI2IiB4PSIyNDMiIHk9IjQwNy42NzE5Ij5Vc2VyIGFjY2Vzc2VzIG1haW4gcGFnZSBvciByZWxldmFudCBmdW5jdGlvbiBwYWdlPC90ZXh0Pjxwb2x5Z29uIGZpbGw9IiNGMUYxRjEiIHBvaW50cz0iNDU3Ljc1LDU3Mi4wMTU2LDQ1Ny43NSw1NzIuMDE1Niw0NjkuNzUsNTg0LjAxNTYsNDU3Ljc1LDU5Ni4wMTU2LDQ1Ny43NSw1OTYuMDE1Niw0NDUuNzUsNTg0LjAxNTYsNDU3Ljc1LDU3Mi4wMTU2IiBzdHlsZT0ic3Ryb2tlOiMxODE4MTg7c3Ryb2tlLXdpZHRoOjAuNTsiLz48bGluZSBzdHlsZT0ic3Ryb2tlOiMwMDAwMDA7c3Ryb2tlLXdpZHRoOjEuNTsiIHgxPSIxNSIgeDI9IjE1IiB5MT0iNDYuOTg0NCIgeTI9IjYzOC4wMTU2Ii8+PHJlY3QgZmlsbD0iI0YxRjFGMSIgaGVpZ2h0PSIzMi44NDM4IiByeD0iMTIuNSIgcnk9IjEyLjUiIHN0eWxlPSJzdHJva2U6IzE4MTgxODtzdHJva2Utd2lkdGg6MC41OyIgd2lkdGg9IjMwMSIgeD0iNzYxLjI1IiB5PSIyNzQuNDg0NCIvPjx0ZXh0IGZpbGw9IiMwMDAwMDAiIGZvbnQtZmFtaWx5PSJzYW5zLXNlcmlmIiBmb250LXNpemU9IjEyIiBsZW5ndGhBZGp1c3Q9InNwYWNpbmciIHRleHRMZW5ndGg9IjI4MSIgeD0iNzcxLjI1IiB5PSIyOTUuODI4MSI+U3lzdGVtIHByb3ZpZGVzIHBhc3N3b3JkIHJlY292ZXJ5IGZ1bmN0aW9uPC90ZXh0Pjxwb2x5Z29uIGZpbGw9IiNGMUYxRjEiIHBvaW50cz0iMTM1NS41LDI3NC40ODQ0LDE1MTcuNSwyNzQuNDg0NCwxNTI5LjUsMjg2LjQ4NDQsMTUxNy41LDI5OC40ODQ0LDEzNTUuNSwyOTguNDg0NCwxMzQzLjUsMjg2LjQ4NDQsMTM1NS41LDI3NC40ODQ0IiBzdHlsZT0ic3Ryb2tlOiMxODE4MTg7c3Ryb2tlLXdpZHRoOjAuNTsiLz48dGV4dCBmaWxsPSIjMDAwMDAwIiBmb250LWZhbWlseT0ic2Fucy1zZXJpZiIgZm9udC1zaXplPSIxMSIgbGVuZ3RoQWRqdXN0PSJzcGFjaW5nIiB0ZXh0TGVuZ3RoPSIxNjIiIHg9IjEzNTUuNSIgeT0iMjkwLjk5NjEiPkxvZ2luIGluZm9ybWF0aW9uIGlzIHZhbGlkPzwvdGV4dD48dGV4dCBmaWxsPSIjMDAwMDAwIiBmb250LWZhbWlseT0ic2Fucy1zZXJpZiIgZm9udC1zaXplPSIxMSIgbGVuZ3RoQWRqdXN0PSJzcGFjaW5nIiB0ZXh0TGVuZ3RoPSIxOCIgeD0iMTMyNS41IiB5PSIyODUuMTA5NCI+WWVzPC90ZXh0Pjx0ZXh0IGZpbGw9IiMwMDAwMDAiIGZvbnQtZmFtaWx5PSJzYW5zLXNlcmlmIiBmb250LXNpemU9IjExIiBsZW5ndGhBZGp1c3Q9InNwYWNpbmciIHRleHRMZW5ndGg9IjEyIiB4PSIxNTI5LjUiIHk9IjI4NS4xMDk0Ij5ObzwvdGV4dD48cmVjdCBmaWxsPSIjRjFGMUYxIiBoZWlnaHQ9IjMyLjg0MzgiIHJ4PSIxMi41IiByeT0iMTIuNSIgc3R5bGU9InN0cm9rZTojMTgxODE4O3N0cm9rZS13aWR0aDowLjU7IiB3aWR0aD0iMjY2IiB4PSIxMDkzLjc1IiB5PSIzMTguNDg0NCIvPjx0ZXh0IGZpbGw9IiMwMDAwMDAiIGZvbnQtZmFtaWx5PSJzYW5zLXNlcmlmIiBmb250LXNpemU9IjEyIiBsZW5ndGhBZGp1c3Q9InNwYWNpbmciIHRleHRMZW5ndGg9IjI0NiIgeD0iMTEwMy43NSIgeT0iMzM5LjgyODEiPlN5c3RlbSBkaXNwbGF5cyBsb2dpbiBzdWNjZXNzIG1lc3NhZ2U8L3RleHQ+PHJlY3QgZmlsbD0iI0YxRjFGMSIgaGVpZ2h0PSIzMi44NDM4IiByeD0iMTIuNSIgcnk9IjEyLjUiIHN0eWxlPSJzdHJva2U6IzE4MTgxODtzdHJva2Utd2lkdGg6MC41OyIgd2lkdGg9IjMwOSIgeD0iMTA3Mi4yNSIgeT0iNDg3LjE3MTkiLz48dGV4dCBmaWxsPSIjMDAwMDAwIiBmb250LWZhbWlseT0ic2Fucy1zZXJpZiIgZm9udC1zaXplPSIxMiIgbGVuZ3RoQWRqdXN0PSJzcGFjaW5nIiB0ZXh0TGVuZ3RoPSIyODkiIHg9IjEwODIuMjUiIHk9IjUwOC41MTU2Ij5TeXN0ZW0gZm9yY2VzIGxvZ291dCBmcm9tIG9uZSBvZiB0aGUgZGV2aWNlczwvdGV4dD48ZWxsaXBzZSBjeD0iMTIyNi43NSIgY3k9IjU1MS4wMTU2IiBmaWxsPSJub25lIiByeD0iMTEiIHJ5PSIxMSIgc3R5bGU9InN0cm9rZTojMjIyMjIyO3N0cm9rZS13aWR0aDoxLjA7Ii8+PGVsbGlwc2UgY3g9IjEyMjYuNzUiIGN5PSI1NTEuMDE1NiIgZmlsbD0iIzIyMjIyMiIgcng9IjYiIHJ5PSI2IiBzdHlsZT0ic3Ryb2tlOiMxMTExMTE7c3Ryb2tlLXdpZHRoOjEuMDsiLz48cG9seWdvbiBmaWxsPSIjRjFGMUYxIiBwb2ludHM9IjExMTUuNzUsNDM5LjE3MTksMTMzNy43NSw0MzkuMTcxOSwxMzQ5Ljc1LDQ1MS4xNzE5LDEzMzcuNzUsNDYzLjE3MTksMTExNS43NSw0NjMuMTcxOSwxMTAzLjc1LDQ1MS4xNzE5LDExMTUuNzUsNDM5LjE3MTkiIHN0eWxlPSJzdHJva2U6IzE4MTgxODtzdHJva2Utd2lkdGg6MC41OyIvPjx0ZXh0IGZpbGw9IiMwMDAwMDAiIGZvbnQtZmFtaWx5PSJzYW5zLXNlcmlmIiBmb250LXNpemU9IjExIiBsZW5ndGhBZGp1c3Q9InNwYWNpbmciIHRleHRMZW5ndGg9IjE4IiB4PSIxMjMwLjc1IiB5PSI0NzMuNTcwMyI+WWVzPC90ZXh0Pjx0ZXh0IGZpbGw9IiMwMDAwMDAiIGZvbnQtZmFtaWx5PSJzYW5zLXNlcmlmIiBmb250LXNpemU9IjExIiBsZW5ndGhBZGp1c3Q9InNwYWNpbmciIHRleHRMZW5ndGg9IjIyMiIgeD0iMTExNS43NSIgeT0iNDU1LjY4MzYiPkxvZ2luIGZyb20gbXVsdGlwbGUgZGV2aWNlcyBkZXRlY3RlZD88L3RleHQ+PHRleHQgZmlsbD0iIzAwMDAwMCIgZm9udC1mYW1pbHk9InNhbnMtc2VyaWYiIGZvbnQtc2l6ZT0iMTEiIGxlbmd0aEFkanVzdD0ic3BhY2luZyIgdGV4dExlbmd0aD0iMTIiIHg9IjEzNDkuNzUiIHk9IjQ0OS43OTY5Ij5ObzwvdGV4dD48ZWxsaXBzZSBjeD0iMTM4My43NSIgY3k9IjQ1MS4xNzE5IiBmaWxsPSJub25lIiByeD0iMTEiIHJ5PSIxMSIgc3R5bGU9InN0cm9rZTojMjIyMjIyO3N0cm9rZS13aWR0aDoxLjA7Ii8+PGVsbGlwc2UgY3g9IjEzODMuNzUiIGN5PSI0NTEuMTcxOSIgZmlsbD0iIzIyMjIyMiIgcng9IjYiIHJ5PSI2IiBzdHlsZT0ic3Ryb2tlOiMxMTExMTE7c3Ryb2tlLXdpZHRoOjEuMDsiLz48cmVjdCBmaWxsPSIjRjFGMUYxIiBoZWlnaHQ9IjMyLjg0MzgiIHJ4PSIxMi41IiByeT0iMTIuNSIgc3R5bGU9InN0cm9rZTojMTgxODE4O3N0cm9rZS13aWR0aDowLjU7IiB3aWR0aD0iMzU2IiB4PSIxNDY4LjI1IiB5PSIzMTguNDg0NCIvPjx0ZXh0IGZpbGw9IiMwMDAwMDAiIGZvbnQtZmFtaWx5PSJzYW5zLXNlcmlmIiBmb250LXNpemU9IjEyIiBsZW5ndGhBZGp1c3Q9InNwYWNpbmciIHRleHRMZW5ndGg9IjMzNiIgeD0iMTQ3OC4yNSIgeT0iMzM5LjgyODEiPlN5c3RlbSBwcm9tcHRzIGVycm9yIG1lc3NhZ2UgYW5kIHJlcXVpcmVzIHJlLWVudHJ5PC90ZXh0PjxlbGxpcHNlIGN4PSIxNjQ2LjI1IiBjeT0iMzk2LjMyODEiIGZpbGw9Im5vbmUiIHJ4PSIxMCIgcnk9IjEwIiBzdHlsZT0ic3Ryb2tlOiMyMjIyMjI7c3Ryb2tlLXdpZHRoOjEuNTsiLz48bGluZSBzdHlsZT0ic3Ryb2tlOiMyMjIyMjI7c3Ryb2tlLXdpZHRoOjIuNTsiIHgxPSIxNjQwLjA2MjgiIHgyPSIxNjUyLjQzNzIiIHkxPSIzOTAuMTQwOSIgeTI9IjQwMi41MTUzIi8+PGxpbmUgc3R5bGU9InN0cm9rZTojMjIyMjIyO3N0cm9rZS13aWR0aDoyLjU7IiB4MT0iMTY1Mi40MzcyIiB4Mj0iMTY0MC4wNjI4IiB5MT0iMzkwLjE0MDkiIHkyPSI0MDIuNTE1MyIvPjxlbGxpcHNlIGN4PSIxMjc4LjUiIGN5PSI2MjcuMDE1NiIgZmlsbD0ibm9uZSIgcng9IjExIiByeT0iMTEiIHN0eWxlPSJzdHJva2U6IzIyMjIyMjtzdHJva2Utd2lkdGg6MS4wOyIvPjxlbGxpcHNlIGN4PSIxMjc4LjUiIGN5PSI2MjcuMDE1NiIgZmlsbD0iIzIyMjIyMiIgcng9IjYiIHJ5PSI2IiBzdHlsZT0ic3Ryb2tlOiMxMTExMTE7c3Ryb2tlLXdpZHRoOjEuMDsiLz48bGluZSBzdHlsZT0ic3Ryb2tlOiMwMDAwMDA7c3Ryb2tlLXdpZHRoOjEuNTsiIHgxPSI3NTUuMjUiIHgyPSI3NTUuMjUiIHkxPSI0Ni45ODQ0IiB5Mj0iNjM4LjAxNTYiLz48bGluZSBzdHlsZT0ic3Ryb2tlOiMwMDAwMDA7c3Ryb2tlLXdpZHRoOjEuNTsiIHgxPSIxODI4LjI1IiB4Mj0iMTgyOC4yNSIgeTE9IjQ2Ljk4NDQiIHkyPSI2MzguMDE1NiIvPjxsaW5lIHN0eWxlPSJzdHJva2U6IzE4MTgxODtzdHJva2Utd2lkdGg6MS4wOyIgeDE9IjQ1Ny43NSIgeDI9IjQ1Ny43NSIgeTE9IjkxLjI1IiB5Mj0iMTExLjI1Ii8+PHBvbHlnb24gZmlsbD0iIzE4MTgxOCIgcG9pbnRzPSI0NTMuNzUsMTAxLjI1LDQ1Ny43NSwxMTEuMjUsNDYxLjc1LDEwMS4yNSw0NTcuNzUsMTA1LjI1IiBzdHlsZT0ic3Ryb2tlOiMxODE4MTg7c3Ryb2tlLXdpZHRoOjEuMDsiLz48bGluZSBzdHlsZT0ic3Ryb2tlOiMxODE4MTg7c3Ryb2tlLXdpZHRoOjEuMDsiIHgxPSIzOTcuNzUiIHgyPSIxMjIiIHkxPSIxNzYuMDkzOCIgeTI9IjE3Ni4wOTM4Ii8+PGxpbmUgc3R5bGU9InN0cm9rZTojMTgxODE4O3N0cm9rZS13aWR0aDoxLjA7IiB4MT0iMTIyIiB4Mj0iMTIyIiB5MT0iMTc2LjA5MzgiIHkyPSIyMjEuNjQwNiIvPjxwb2x5Z29uIGZpbGw9IiMxODE4MTgiIHBvaW50cz0iMTE4LDIxMS42NDA2LDEyMiwyMjEuNjQwNiwxMjYsMjExLjY0MDYsMTIyLDIxNS42NDA2IiBzdHlsZT0ic3Ryb2tlOiMxODE4MTg7c3Ryb2tlLXdpZHRoOjEuMDsiLz48dGV4dCBmaWxsPSIjMDAwMDAwIiBmb250LWZhbWlseT0ic2Fucy1zZXJpZiIgZm9udC1zaXplPSIxMSIgbGVuZ3RoQWRqdXN0PSJzcGFjaW5nIiB0ZXh0TGVuZ3RoPSIxOCIgeD0iMTIyIiB5PSIyMDMuMzc4OSI+WWVzPC90ZXh0PjxsaW5lIHN0eWxlPSJzdHJva2U6IzE4MTgxODtzdHJva2Utd2lkdGg6MS4wOyIgeDE9IjUxNy43NSIgeDI9IjYxNS43NSIgeTE9IjE3Ni4wOTM4IiB5Mj0iMTc2LjA5MzgiLz48bGluZSBzdHlsZT0ic3Ryb2tlOiMxODE4MTg7c3Ryb2tlLXdpZHRoOjEuMDsiIHgxPSI2MTUuNzUiIHgyPSI2MTUuNzUiIHkxPSIxNzYuMDkzOCIgeTI9IjIyMS42NDA2Ii8+PHBvbHlnb24gZmlsbD0iIzE4MTgxOCIgcG9pbnRzPSI2MTEuNzUsMjExLjY0MDYsNjE1Ljc1LDIyMS42NDA2LDYxOS43NSwyMTEuNjQwNiw2MTUuNzUsMjE1LjY0MDYiIHN0eWxlPSJzdHJva2U6IzE4MTgxODtzdHJva2Utd2lkdGg6MS4wOyIvPjx0ZXh0IGZpbGw9IiMwMDAwMDAiIGZvbnQtZmFtaWx5PSJzYW5zLXNlcmlmIiBmb250LXNpemU9IjExIiBsZW5ndGhBZGp1c3Q9InNwYWNpbmciIHRleHRMZW5ndGg9IjEyIiB4PSI2MTUuNzUiIHk9IjIwMy4zNzg5Ij5ObzwvdGV4dD48bGluZSBzdHlsZT0ic3Ryb2tlOiMxODE4MTg7c3Ryb2tlLXdpZHRoOjEuMDsiIHgxPSIxMjIiIHgyPSIxMjIiIHkxPSIzNzUuMTcxOSIgeTI9IjU4NC4wMTU2Ii8+PGxpbmUgc3R5bGU9InN0cm9rZTojMTgxODE4O3N0cm9rZS13aWR0aDoxLjA7IiB4MT0iMTIyIiB4Mj0iNDQ1Ljc1IiB5MT0iNTg0LjAxNTYiIHkyPSI1ODQuMDE1NiIvPjxwb2x5Z29uIGZpbGw9IiMxODE4MTgiIHBvaW50cz0iNDM1Ljc1LDU4MC4wMTU2LDQ0NS43NSw1ODQuMDE1Niw0MzUuNzUsNTg4LjAxNTYsNDM5Ljc1LDU4NC4wMTU2IiBzdHlsZT0ic3Ryb2tlOiMxODE4MTg7c3Ryb2tlLXdpZHRoOjEuMDsiLz48bGluZSBzdHlsZT0ic3Ryb2tlOiMxODE4MTg7c3Ryb2tlLXdpZHRoOjEuMDsiIHgxPSI0NTcuNzUiIHgyPSI0NTcuNzUiIHkxPSIxNDQuMDkzOCIgeTI9IjE2NC4wOTM4Ii8+PHBvbHlnb24gZmlsbD0iIzE4MTgxOCIgcG9pbnRzPSI0NTMuNzUsMTU0LjA5MzgsNDU3Ljc1LDE2NC4wOTM4LDQ2MS43NSwxNTQuMDkzOCw0NTcuNzUsMTU4LjA5MzgiIHN0eWxlPSJzdHJva2U6IzE4MTgxODtzdHJva2Utd2lkdGg6MS4wOyIvPjxsaW5lIHN0eWxlPSJzdHJva2U6IzE4MTgxODtzdHJva2Utd2lkdGg6MS4wOyIgeDE9IjEyMjYuNzUiIHgyPSIxMjI2Ljc1IiB5MT0iNTIwLjAxNTYiIHkyPSI1NDAuMDE1NiIvPjxwb2x5Z29uIGZpbGw9IiMxODE4MTgiIHBvaW50cz0iMTIyMi43NSw1MzAuMDE1NiwxMjI2Ljc1LDU0MC4wMTU2LDEyMzAuNzUsNTMwLjAxNTYsMTIyNi43NSw1MzQuMDE1NiIgc3R5bGU9InN0cm9rZTojMTgxODE4O3N0cm9rZS13aWR0aDoxLjA7Ii8+PGxpbmUgc3R5bGU9InN0cm9rZTojMTgxODE4O3N0cm9rZS13aWR0aDoxLjA7IiB4MT0iMTIyNi43NSIgeDI9IjEyMjYuNzUiIHkxPSI0NjMuMTcxOSIgeTI9IjQ4Ny4xNzE5Ii8+PHBvbHlnb24gZmlsbD0iIzE4MTgxOCIgcG9pbnRzPSIxMjIyLjc1LDQ3Ny4xNzE5LDEyMjYuNzUsNDg3LjE3MTksMTIzMC43NSw0NzcuMTcxOSwxMjI2Ljc1LDQ4MS4xNzE5IiBzdHlsZT0ic3Ryb2tlOiMxODE4MTg7c3Ryb2tlLXdpZHRoOjEuMDsiLz48bGluZSBzdHlsZT0ic3Ryb2tlOiMxODE4MTg7c3Ryb2tlLXdpZHRoOjEuMDsiIHgxPSIxMzQ5Ljc1IiB4Mj0iMTM3Mi43NSIgeTE9IjQ1MS4xNzE5IiB5Mj0iNDUxLjE3MTkiLz48cG9seWdvbiBmaWxsPSIjMTgxODE4IiBwb2ludHM9IjEzNjIuNzUsNDQ3LjE3MTksMTM3Mi43NSw0NTEuMTcxOSwxMzYyLjc1LDQ1NS4xNzE5LDEzNjYuNzUsNDUxLjE3MTkiIHN0eWxlPSJzdHJva2U6IzE4MTgxODtzdHJva2Utd2lkdGg6MS4wOyIvPjxsaW5lIHN0eWxlPSJzdHJva2U6IzE4MTgxODtzdHJva2Utd2lkdGg6MS4wOyIgeDE9IjE2NDYuMjUiIHgyPSIxNjQ2LjI1IiB5MT0iMzUxLjMyODEiIHkyPSIzODYuMzI4MSIvPjxwb2x5Z29uIGZpbGw9IiMxODE4MTgiIHBvaW50cz0iMTY0Mi4yNSwzNzYuMzI4MSwxNjQ2LjI1LDM4Ni4zMjgxLDE2NTAuMjUsMzc2LjMyODEsMTY0Ni4yNSwzODAuMzI4MSIgc3R5bGU9InN0cm9rZTojMTgxODE4O3N0cm9rZS13aWR0aDoxLjA7Ii8+PGxpbmUgc3R5bGU9InN0cm9rZTojMTgxODE4O3N0cm9rZS13aWR0aDoxLjA7IiB4MT0iMTM0My41IiB4Mj0iMTIyNi43NSIgeTE9IjI4Ni40ODQ0IiB5Mj0iMjg2LjQ4NDQiLz48bGluZSBzdHlsZT0ic3Ryb2tlOiMxODE4MTg7c3Ryb2tlLXdpZHRoOjEuMDsiIHgxPSIxMjI2Ljc1IiB4Mj0iMTIyNi43NSIgeTE9IjI4Ni40ODQ0IiB5Mj0iMzE4LjQ4NDQiLz48cG9seWdvbiBmaWxsPSIjMTgxODE4IiBwb2ludHM9IjEyMjIuNzUsMzA4LjQ4NDQsMTIyNi43NSwzMTguNDg0NCwxMjMwLjc1LDMwOC40ODQ0LDEyMjYuNzUsMzEyLjQ4NDQiIHN0eWxlPSJzdHJva2U6IzE4MTgxODtzdHJva2Utd2lkdGg6MS4wOyIvPjxsaW5lIHN0eWxlPSJzdHJva2U6IzE4MTgxODtzdHJva2Utd2lkdGg6MS4wOyIgeDE9IjE1MjkuNSIgeDI9IjE2NDYuMjUiIHkxPSIyODYuNDg0NCIgeTI9IjI4Ni40ODQ0Ii8+PGxpbmUgc3R5bGU9InN0cm9rZTojMTgxODE4O3N0cm9rZS13aWR0aDoxLjA7IiB4MT0iMTY0Ni4yNSIgeDI9IjE2NDYuMjUiIHkxPSIyODYuNDg0NCIgeTI9IjMxOC40ODQ0Ii8+PHBvbHlnb24gZmlsbD0iIzE4MTgxOCIgcG9pbnRzPSIxNjQyLjI1LDMwOC40ODQ0LDE2NDYuMjUsMzE4LjQ4NDQsMTY1MC4yNSwzMDguNDg0NCwxNjQ2LjI1LDMxMi40ODQ0IiBzdHlsZT0ic3Ryb2tlOiMxODE4MTg7c3Ryb2tlLXdpZHRoOjEuMDsiLz48bGluZSBzdHlsZT0ic3Ryb2tlOiMxODE4MTg7c3Ryb2tlLXdpZHRoOjEuMDsiIHgxPSIxMjIiIHgyPSIxMjIiIHkxPSIyNTQuNDg0NCIgeTI9IjI1OS40ODQ0Ii8+PGxpbmUgc3R5bGU9InN0cm9rZTojMTgxODE4O3N0cm9rZS13aWR0aDoxLjA7IiB4MT0iMTIyIiB4Mj0iOTExLjc1IiB5MT0iMjU5LjQ4NDQiIHkyPSIyNTkuNDg0NCIvPjxsaW5lIHN0eWxlPSJzdHJva2U6IzE4MTgxODtzdHJva2Utd2lkdGg6MS4wOyIgeDE9IjkxMS43NSIgeDI9IjkxMS43NSIgeTE9IjI1OS40ODQ0IiB5Mj0iMjc0LjQ4NDQiLz48cG9seWdvbiBmaWxsPSIjMTgxODE4IiBwb2ludHM9IjkwNy43NSwyNjQuNDg0NCw5MTEuNzUsMjc0LjQ4NDQsOTE1Ljc1LDI2NC40ODQ0LDkxMS43NSwyNjguNDg0NCIgc3R5bGU9InN0cm9rZTojMTgxODE4O3N0cm9rZS13aWR0aDoxLjA7Ii8+PGxpbmUgc3R5bGU9InN0cm9rZTojMTgxODE4O3N0cm9rZS13aWR0aDoxLjA7IiB4MT0iOTExLjc1IiB4Mj0iOTExLjc1IiB5MT0iMzA3LjMyODEiIHkyPSIzMjQuODI4MSIvPjxsaW5lIHN0eWxlPSJzdHJva2U6IzE4MTgxODtzdHJva2Utd2lkdGg6MS4wOyIgeDE9IjkxMS43NSIgeDI9IjEyMiIgeTE9IjMyNC44MjgxIiB5Mj0iMzI0LjgyODEiLz48bGluZSBzdHlsZT0ic3Ryb2tlOiMxODE4MTg7c3Ryb2tlLXdpZHRoOjEuMDsiIHgxPSIxMjIiIHgyPSIxMjIiIHkxPSIzMjQuODI4MSIgeTI9IjM0Mi4zMjgxIi8+PHBvbHlnb24gZmlsbD0iIzE4MTgxOCIgcG9pbnRzPSIxMTgsMzMyLjMyODEsMTIyLDM0Mi4zMjgxLDEyNiwzMzIuMzI4MSwxMjIsMzM2LjMyODEiIHN0eWxlPSJzdHJva2U6IzE4MTgxODtzdHJva2Utd2lkdGg6MS4wOyIvPjxsaW5lIHN0eWxlPSJzdHJva2U6IzE4MTgxODtzdHJva2Utd2lkdGg6MS4wOyIgeDE9IjEyMjYuNzUiIHgyPSIxMjI2Ljc1IiB5MT0iMzUxLjMyODEiIHkyPSIzNjguODI4MSIvPjxsaW5lIHN0eWxlPSJzdHJva2U6IzE4MTgxODtzdHJva2Utd2lkdGg6MS4wOyIgeDE9IjEyMjYuNzUiIHgyPSI0MDYiIHkxPSIzNjguODI4MSIgeTI9IjM2OC44MjgxIi8+PGxpbmUgc3R5bGU9InN0cm9rZTojMTgxODE4O3N0cm9rZS13aWR0aDoxLjA7IiB4MT0iNDA2IiB4Mj0iNDA2IiB5MT0iMzY4LjgyODEiIHkyPSIzODYuMzI4MSIvPjxwb2x5Z29uIGZpbGw9IiMxODE4MTgiIHBvaW50cz0iNDAyLDM3Ni4zMjgxLDQwNiwzODYuMzI4MSw0MTAsMzc2LjMyODEsNDA2LDM4MC4zMjgxIiBzdHlsZT0ic3Ryb2tlOiMxODE4MTg7c3Ryb2tlLXdpZHRoOjEuMDsiLz48bGluZSBzdHlsZT0ic3Ryb2tlOiMxODE4MTg7c3Ryb2tlLXdpZHRoOjEuMDsiIHgxPSI0MDYiIHgyPSI0MDYiIHkxPSI0MTkuMTcxOSIgeTI9IjQyNC4xNzE5Ii8+PGxpbmUgc3R5bGU9InN0cm9rZTojMTgxODE4O3N0cm9rZS13aWR0aDoxLjA7IiB4MT0iNDA2IiB4Mj0iMTIyNi43NSIgeTE9IjQyNC4xNzE5IiB5Mj0iNDI0LjE3MTkiLz48bGluZSBzdHlsZT0ic3Ryb2tlOiMxODE4MTg7c3Ryb2tlLXdpZHRoOjEuMDsiIHgxPSIxMjI2Ljc1IiB4Mj0iMTIyNi43NSIgeTE9IjQyNC4xNzE5IiB5Mj0iNDM5LjE3MTkiLz48cG9seWdvbiBmaWxsPSIjMTgxODE4IiBwb2ludHM9IjEyMjIuNzUsNDI5LjE3MTksMTIyNi43NSw0MzkuMTcxOSwxMjMwLjc1LDQyOS4xNzE5LDEyMjYuNzUsNDMzLjE3MTkiIHN0eWxlPSJzdHJva2U6IzE4MTgxODtzdHJva2Utd2lkdGg6MS4wOyIvPjxsaW5lIHN0eWxlPSJzdHJva2U6IzE4MTgxODtzdHJva2Utd2lkdGg6MS4wOyIgeDE9IjYxNS43NSIgeDI9IjYxNS43NSIgeTE9IjI1NC40ODQ0IiB5Mj0iMjU5LjQ4NDQiLz48bGluZSBzdHlsZT0ic3Ryb2tlOiMxODE4MTg7c3Ryb2tlLXdpZHRoOjEuMDsiIHgxPSI2MTUuNzUiIHgyPSIxNDM2LjUiIHkxPSIyNTkuNDg0NCIgeTI9IjI1OS40ODQ0Ii8+PGxpbmUgc3R5bGU9InN0cm9rZTojMTgxODE4O3N0cm9rZS13aWR0aDoxLjA7IiB4MT0iMTQzNi41IiB4Mj0iMTQzNi41IiB5MT0iMjU5LjQ4NDQiIHkyPSIyNzQuNDg0NCIvPjxwb2x5Z29uIGZpbGw9IiMxODE4MTgiIHBvaW50cz0iMTQzMi41LDI2NC40ODQ0LDE0MzYuNSwyNzQuNDg0NCwxNDQwLjUsMjY0LjQ4NDQsMTQzNi41LDI2OC40ODQ0IiBzdHlsZT0ic3Ryb2tlOiMxODE4MTg7c3Ryb2tlLXdpZHRoOjEuMDsiLz48bGluZSBzdHlsZT0ic3Ryb2tlOiMxODE4MTg7c3Ryb2tlLXdpZHRoOjEuMDsiIHgxPSI0NTcuNzUiIHgyPSI0NTcuNzUiIHkxPSI1OTYuMDE1NiIgeTI9IjYwMS4wMTU2Ii8+PGxpbmUgc3R5bGU9InN0cm9rZTojMTgxODE4O3N0cm9rZS13aWR0aDoxLjA7IiB4MT0iNDU3Ljc1IiB4Mj0iMTI3OC41IiB5MT0iNjAxLjAxNTYiIHkyPSI2MDEuMDE1NiIvPjxsaW5lIHN0eWxlPSJzdHJva2U6IzE4MTgxODtzdHJva2Utd2lkdGg6MS4wOyIgeDE9IjEyNzguNSIgeDI9IjEyNzguNSIgeTE9IjYwMS4wMTU2IiB5Mj0iNjE2LjAxNTYiLz48cG9seWdvbiBmaWxsPSIjMTgxODE4IiBwb2ludHM9IjEyNzQuNSw2MDYuMDE1NiwxMjc4LjUsNjE2LjAxNTYsMTI4Mi41LDYwNi4wMTU2LDEyNzguNSw2MTAuMDE1NiIgc3R5bGU9InN0cm9rZTojMTgxODE4O3N0cm9rZS13aWR0aDoxLjA7Ii8+PHRleHQgZmlsbD0iIzAwMDAwMCIgZm9udC1mYW1pbHk9InNhbnMtc2VyaWYiIGZvbnQtc2l6ZT0iMTgiIGxlbmd0aEFkanVzdD0ic3BhY2luZyIgdGV4dExlbmd0aD0iMjE2IiB4PSIyNzcuMTI1IiB5PSI2NCI+VmlzaXRvciBvciBBZG1pbmlzdHJhdG9yPC90ZXh0Pjx0ZXh0IGZpbGw9IiMwMDAwMDAiIGZvbnQtZmFtaWx5PSJzYW5zLXNlcmlmIiBmb250LXNpemU9IjE4IiBsZW5ndGhBZGp1c3Q9InNwYWNpbmciIHRleHRMZW5ndGg9IjU0IiB4PSIxMjY0Ljc1IiB5PSI2NCI+U3lzdGVtPC90ZXh0PjwhLS1TUkM9W2JMRXpSakgwNEV4dEFRUkJmVTA1Uzg2R0ExNDVLUDBlNXRqeWp2OXRyLW9peHRISTZnZ1M0OFdoR1hJZzQzV0dKSDhZNDd5N3VjTFk3d2J1MVNPX1R4NExXZTlieFRncEN6X0NEel9pNlhHbGp5elV4R2NsVjhBbUlVWldqa3FoMG5qWnlnWFhPd0hxOFd0MkJJTnhKY2VYamt1ZktqdXd1RlRjZjlMSHY5cmFtdk9XQnZxTnJvaUtEMXVUR0xBMWZSQUZXUTJIeWs2VzVybE5IeXlzZWY1cnFPcnI0S2Yyd0RyN01YVjBwcHlvYkNTVF9EMTYyMHdmMFlvSkwwMXJ5T3J4bW9IclRnV1lmNUxZM1dsajREcU91aW80TmJhSk4yZHp0SVBSWkg4cXJULW5fcnp5RWgzU01QRmYxc29KOWNnMWJodmhpRldtTnlwdHl5Y2lzM3F5X05iR0YzZWt6ZXhwd1RsWXlGTll1RVdZTHV4T1VMVENGWXpVcEZDVnB1bDlENy15Tm5zZTY3Z3JoaWZtX3hLaXdPOFk2Q2Y0aUdKVzFzWFE0aEdSNW9iQTRwYlVRYWJQNjI4SFE1dk03UnkyeXRGc2lXOVc5UkhpUGdDQ1NQWldLMWdfS2dDYncwTVlOS3duaW5mcWJkWUx5WDE3RTVJU1c3VUZlU1RCc0JLUFNhVkEwRVBkQ3ItWmJTQk9rMG5TdVdNVEtGOHNOSGFtOExtRG1EeXpKQUpZb3dicVRTamQ5eHktbGxkel9LZG5SQmdPVlFqX1FfZFBjN196VEZmYnZzcHhRUjd4bGxPTm9uZ1dLcUhoeTdOZzJUMHZSZENaTXBMazNYemNZWXlGVnJwWmFOSlplNXNtRTItU3JfaG8yWTVBTmR5MF0tLT48L2c+PC9zdmc+;" vertex="1" parent="1">
            <mxGeometry x="-230" y="-60" width="1849" height="650" as="geometry" />
          </mxCell>
        </UserObject>
        <UserObject label="" plantUmlData="{&#xa;  &quot;data&quot;: &quot;@startuml\n\n|Administrator reviews registration information|\nstart\n:Visitor submits registration information to backend system;\n:Administrator logs into backend system;\n:View registration information submitted by visitor;\n:Perform review and decide whether to approve the registration of the visitor;\nif (Approve registration?) then (Yes)\n  :Visitor becomes a member;\nelse (No)\n  :Visitor&#39;s registration fails;\n  :Send SMS notification of registration failure;\nendif\n:Send registration result notification to visitor;\n\nstop\n\n@enduml&quot;,&#xa;  &quot;format&quot;: &quot;svg&quot;&#xa;}" id="c8ZHbjYaLbXA3wWcWkqa-2">
          <mxCell style="shape=image;noLabel=1;verticalAlign=top;aspect=fixed;imageAspect=0;image=data:image/svg+xml,PD94bWwgdmVyc2lvbj0iMS4wIiBlbmNvZGluZz0idXMtYXNjaWkiIHN0YW5kYWxvbmU9Im5vIj8+PHN2ZyB4bWxucz0iaHR0cDovL3d3dy53My5vcmcvMjAwMC9zdmciIHhtbG5zOnhsaW5rPSJodHRwOi8vd3d3LnczLm9yZy8xOTk5L3hsaW5rIiBjb250ZW50U3R5bGVUeXBlPSJ0ZXh0L2NzcyIgaGVpZ2h0PSI1MTZweCIgcHJlc2VydmVBc3BlY3RSYXRpbz0ibm9uZSIgc3R5bGU9IndpZHRoOjU3M3B4O2hlaWdodDo1MTZweDtiYWNrZ3JvdW5kOiNGRkZGRkY7IiB2ZXJzaW9uPSIxLjEiIHZpZXdCb3g9IjAgMCA1NzMgNTE2IiB3aWR0aD0iNTczcHgiIHpvb21BbmRQYW49Im1hZ25pZnkiPjxkZWZzLz48Zz48ZWxsaXBzZSBjeD0iMjcyIiBjeT0iMjAiIGZpbGw9IiMyMjIyMjIiIHJ4PSIxMCIgcnk9IjEwIiBzdHlsZT0ic3Ryb2tlOiMyMjIyMjI7c3Ryb2tlLXdpZHRoOjEuMDsiLz48cmVjdCBmaWxsPSIjRjFGMUYxIiBoZWlnaHQ9IjMyLjg0MzgiIHJ4PSIxMi41IiByeT0iMTIuNSIgc3R5bGU9InN0cm9rZTojMTgxODE4O3N0cm9rZS13aWR0aDowLjU7IiB3aWR0aD0iNDAwIiB4PSI3MiIgeT0iNTAiLz48dGV4dCBmaWxsPSIjMDAwMDAwIiBmb250LWZhbWlseT0ic2Fucy1zZXJpZiIgZm9udC1zaXplPSIxMiIgbGVuZ3RoQWRqdXN0PSJzcGFjaW5nIiB0ZXh0TGVuZ3RoPSIzODAiIHg9IjgyIiB5PSI3MS4zNDM4Ij5WaXNpdG9yIHN1Ym1pdHMgcmVnaXN0cmF0aW9uIGluZm9ybWF0aW9uIHRvIGJhY2tlbmQgc3lzdGVtPC90ZXh0PjxyZWN0IGZpbGw9IiNGMUYxRjEiIGhlaWdodD0iMzIuODQzOCIgcng9IjEyLjUiIHJ5PSIxMi41IiBzdHlsZT0ic3Ryb2tlOiMxODE4MTg7c3Ryb2tlLXdpZHRoOjAuNTsiIHdpZHRoPSIyNzAiIHg9IjEzNyIgeT0iMTAyLjg0MzgiLz48dGV4dCBmaWxsPSIjMDAwMDAwIiBmb250LWZhbWlseT0ic2Fucy1zZXJpZiIgZm9udC1zaXplPSIxMiIgbGVuZ3RoQWRqdXN0PSJzcGFjaW5nIiB0ZXh0TGVuZ3RoPSIyNTAiIHg9IjE0NyIgeT0iMTI0LjE4NzUiPkFkbWluaXN0cmF0b3IgbG9ncyBpbnRvIGJhY2tlbmQgc3lzdGVtPC90ZXh0PjxyZWN0IGZpbGw9IiNGMUYxRjEiIGhlaWdodD0iMzIuODQzOCIgcng9IjEyLjUiIHJ5PSIxMi41IiBzdHlsZT0ic3Ryb2tlOiMxODE4MTg7c3Ryb2tlLXdpZHRoOjAuNTsiIHdpZHRoPSIzNDciIHg9Ijk4LjUiIHk9IjE1NS42ODc1Ii8+PHRleHQgZmlsbD0iIzAwMDAwMCIgZm9udC1mYW1pbHk9InNhbnMtc2VyaWYiIGZvbnQtc2l6ZT0iMTIiIGxlbmd0aEFkanVzdD0ic3BhY2luZyIgdGV4dExlbmd0aD0iMzI3IiB4PSIxMDguNSIgeT0iMTc3LjAzMTMiPlZpZXcgcmVnaXN0cmF0aW9uIGluZm9ybWF0aW9uIHN1Ym1pdHRlZCBieSB2aXNpdG9yPC90ZXh0PjxyZWN0IGZpbGw9IiNGMUYxRjEiIGhlaWdodD0iMzIuODQzOCIgcng9IjEyLjUiIHJ5PSIxMi41IiBzdHlsZT0ic3Ryb2tlOiMxODE4MTg7c3Ryb2tlLXdpZHRoOjAuNTsiIHdpZHRoPSI1MjIiIHg9IjExIiB5PSIyMDguNTMxMyIvPjx0ZXh0IGZpbGw9IiMwMDAwMDAiIGZvbnQtZmFtaWx5PSJzYW5zLXNlcmlmIiBmb250LXNpemU9IjEyIiBsZW5ndGhBZGp1c3Q9InNwYWNpbmciIHRleHRMZW5ndGg9IjUwMiIgeD0iMjEiIHk9IjIyOS44NzUiPlBlcmZvcm0gcmV2aWV3IGFuZCBkZWNpZGUgd2hldGhlciB0byBhcHByb3ZlIHRoZSByZWdpc3RyYXRpb24gb2YgdGhlIHZpc2l0b3I8L3RleHQ+PHBvbHlnb24gZmlsbD0iI0YxRjFGMSIgcG9pbnRzPSIyMDksMjYxLjM3NSwzMzUsMjYxLjM3NSwzNDcsMjczLjM3NSwzMzUsMjg1LjM3NSwyMDksMjg1LjM3NSwxOTcsMjczLjM3NSwyMDksMjYxLjM3NSIgc3R5bGU9InN0cm9rZTojMTgxODE4O3N0cm9rZS13aWR0aDowLjU7Ii8+PHRleHQgZmlsbD0iIzAwMDAwMCIgZm9udC1mYW1pbHk9InNhbnMtc2VyaWYiIGZvbnQtc2l6ZT0iMTEiIGxlbmd0aEFkanVzdD0ic3BhY2luZyIgdGV4dExlbmd0aD0iMTI2IiB4PSIyMDkiIHk9IjI3Ny44ODY3Ij5BcHByb3ZlIHJlZ2lzdHJhdGlvbj88L3RleHQ+PHRleHQgZmlsbD0iIzAwMDAwMCIgZm9udC1mYW1pbHk9InNhbnMtc2VyaWYiIGZvbnQtc2l6ZT0iMTEiIGxlbmd0aEFkanVzdD0ic3BhY2luZyIgdGV4dExlbmd0aD0iMTgiIHg9IjE3OSIgeT0iMjcyIj5ZZXM8L3RleHQ+PHRleHQgZmlsbD0iIzAwMDAwMCIgZm9udC1mYW1pbHk9InNhbnMtc2VyaWYiIGZvbnQtc2l6ZT0iMTEiIGxlbmd0aEFkanVzdD0ic3BhY2luZyIgdGV4dExlbmd0aD0iMTIiIHg9IjM0NyIgeT0iMjcyIj5ObzwvdGV4dD48cmVjdCBmaWxsPSIjRjFGMUYxIiBoZWlnaHQ9IjMyLjg0MzgiIHJ4PSIxMi41IiByeT0iMTIuNSIgc3R5bGU9InN0cm9rZTojMTgxODE4O3N0cm9rZS13aWR0aDowLjU7IiB3aWR0aD0iMTc4IiB4PSI0OS43NSIgeT0iMjk1LjM3NSIvPjx0ZXh0IGZpbGw9IiMwMDAwMDAiIGZvbnQtZmFtaWx5PSJzYW5zLXNlcmlmIiBmb250LXNpemU9IjEyIiBsZW5ndGhBZGp1c3Q9InNwYWNpbmciIHRleHRMZW5ndGg9IjE1OCIgeD0iNTkuNzUiIHk9IjMxNi43MTg4Ij5WaXNpdG9yIGJlY29tZXMgYSBtZW1iZXI8L3RleHQ+PHJlY3QgZmlsbD0iI0YxRjFGMSIgaGVpZ2h0PSIzMi44NDM4IiByeD0iMTIuNSIgcnk9IjEyLjUiIHN0eWxlPSJzdHJva2U6IzE4MTgxODtzdHJva2Utd2lkdGg6MC41OyIgd2lkdGg9IjIwMyIgeD0iMzAzLjc1IiB5PSIyOTUuMzc1Ii8+PHRleHQgZmlsbD0iIzAwMDAwMCIgZm9udC1mYW1pbHk9InNhbnMtc2VyaWYiIGZvbnQtc2l6ZT0iMTIiIGxlbmd0aEFkanVzdD0ic3BhY2luZyIgdGV4dExlbmd0aD0iMTgzIiB4PSIzMTMuNzUiIHk9IjMxNi43MTg4Ij5WaXNpdG9yJ3MgcmVnaXN0cmF0aW9uIGZhaWxzPC90ZXh0PjxyZWN0IGZpbGw9IiNGMUYxRjEiIGhlaWdodD0iMzIuODQzOCIgcng9IjEyLjUiIHJ5PSIxMi41IiBzdHlsZT0ic3Ryb2tlOiMxODE4MTg7c3Ryb2tlLXdpZHRoOjAuNTsiIHdpZHRoPSIzMTUiIHg9IjI0Ny43NSIgeT0iMzQ4LjIxODgiLz48dGV4dCBmaWxsPSIjMDAwMDAwIiBmb250LWZhbWlseT0ic2Fucy1zZXJpZiIgZm9udC1zaXplPSIxMiIgbGVuZ3RoQWRqdXN0PSJzcGFjaW5nIiB0ZXh0TGVuZ3RoPSIyOTUiIHg9IjI1Ny43NSIgeT0iMzY5LjU2MjUiPlNlbmQgU01TIG5vdGlmaWNhdGlvbiBvZiByZWdpc3RyYXRpb24gZmFpbHVyZTwvdGV4dD48cG9seWdvbiBmaWxsPSIjRjFGMUYxIiBwb2ludHM9IjI3MiwzODcuMDYyNSwyODQsMzk5LjA2MjUsMjcyLDQxMS4wNjI1LDI2MCwzOTkuMDYyNSwyNzIsMzg3LjA2MjUiIHN0eWxlPSJzdHJva2U6IzE4MTgxODtzdHJva2Utd2lkdGg6MC41OyIvPjxyZWN0IGZpbGw9IiNGMUYxRjEiIGhlaWdodD0iMzIuODQzOCIgcng9IjEyLjUiIHJ5PSIxMi41IiBzdHlsZT0ic3Ryb2tlOiMxODE4MTg7c3Ryb2tlLXdpZHRoOjAuNTsiIHdpZHRoPSIzMzQiIHg9IjEwNSIgeT0iNDMxLjA2MjUiLz48dGV4dCBmaWxsPSIjMDAwMDAwIiBmb250LWZhbWlseT0ic2Fucy1zZXJpZiIgZm9udC1zaXplPSIxMiIgbGVuZ3RoQWRqdXN0PSJzcGFjaW5nIiB0ZXh0TGVuZ3RoPSIzMTQiIHg9IjExNSIgeT0iNDUyLjQwNjMiPlNlbmQgcmVnaXN0cmF0aW9uIHJlc3VsdCBub3RpZmljYXRpb24gdG8gdmlzaXRvcjwvdGV4dD48ZWxsaXBzZSBjeD0iMjcyIiBjeT0iNDk0LjkwNjMiIGZpbGw9Im5vbmUiIHJ4PSIxMSIgcnk9IjExIiBzdHlsZT0ic3Ryb2tlOiMyMjIyMjI7c3Ryb2tlLXdpZHRoOjEuMDsiLz48ZWxsaXBzZSBjeD0iMjcyIiBjeT0iNDk0LjkwNjMiIGZpbGw9IiMyMjIyMjIiIHJ4PSI2IiByeT0iNiIgc3R5bGU9InN0cm9rZTojMTExMTExO3N0cm9rZS13aWR0aDoxLjA7Ii8+PGxpbmUgc3R5bGU9InN0cm9rZTojMTgxODE4O3N0cm9rZS13aWR0aDoxLjA7IiB4MT0iMjcyIiB4Mj0iMjcyIiB5MT0iMzAiIHkyPSI1MCIvPjxwb2x5Z29uIGZpbGw9IiMxODE4MTgiIHBvaW50cz0iMjY4LDQwLDI3Miw1MCwyNzYsNDAsMjcyLDQ0IiBzdHlsZT0ic3Ryb2tlOiMxODE4MTg7c3Ryb2tlLXdpZHRoOjEuMDsiLz48bGluZSBzdHlsZT0ic3Ryb2tlOiMxODE4MTg7c3Ryb2tlLXdpZHRoOjEuMDsiIHgxPSIyNzIiIHgyPSIyNzIiIHkxPSI4Mi44NDM4IiB5Mj0iMTAyLjg0MzgiLz48cG9seWdvbiBmaWxsPSIjMTgxODE4IiBwb2ludHM9IjI2OCw5Mi44NDM4LDI3MiwxMDIuODQzOCwyNzYsOTIuODQzOCwyNzIsOTYuODQzOCIgc3R5bGU9InN0cm9rZTojMTgxODE4O3N0cm9rZS13aWR0aDoxLjA7Ii8+PGxpbmUgc3R5bGU9InN0cm9rZTojMTgxODE4O3N0cm9rZS13aWR0aDoxLjA7IiB4MT0iMjcyIiB4Mj0iMjcyIiB5MT0iMTM1LjY4NzUiIHkyPSIxNTUuNjg3NSIvPjxwb2x5Z29uIGZpbGw9IiMxODE4MTgiIHBvaW50cz0iMjY4LDE0NS42ODc1LDI3MiwxNTUuNjg3NSwyNzYsMTQ1LjY4NzUsMjcyLDE0OS42ODc1IiBzdHlsZT0ic3Ryb2tlOiMxODE4MTg7c3Ryb2tlLXdpZHRoOjEuMDsiLz48bGluZSBzdHlsZT0ic3Ryb2tlOiMxODE4MTg7c3Ryb2tlLXdpZHRoOjEuMDsiIHgxPSIyNzIiIHgyPSIyNzIiIHkxPSIxODguNTMxMyIgeTI9IjIwOC41MzEzIi8+PHBvbHlnb24gZmlsbD0iIzE4MTgxOCIgcG9pbnRzPSIyNjgsMTk4LjUzMTMsMjcyLDIwOC41MzEzLDI3NiwxOTguNTMxMywyNzIsMjAyLjUzMTMiIHN0eWxlPSJzdHJva2U6IzE4MTgxODtzdHJva2Utd2lkdGg6MS4wOyIvPjxsaW5lIHN0eWxlPSJzdHJva2U6IzE4MTgxODtzdHJva2Utd2lkdGg6MS4wOyIgeDE9IjQwNS4yNSIgeDI9IjQwNS4yNSIgeTE9IjMyOC4yMTg4IiB5Mj0iMzQ4LjIxODgiLz48cG9seWdvbiBmaWxsPSIjMTgxODE4IiBwb2ludHM9IjQwMS4yNSwzMzguMjE4OCw0MDUuMjUsMzQ4LjIxODgsNDA5LjI1LDMzOC4yMTg4LDQwNS4yNSwzNDIuMjE4OCIgc3R5bGU9InN0cm9rZTojMTgxODE4O3N0cm9rZS13aWR0aDoxLjA7Ii8+PGxpbmUgc3R5bGU9InN0cm9rZTojMTgxODE4O3N0cm9rZS13aWR0aDoxLjA7IiB4MT0iMTk3IiB4Mj0iMTM4Ljc1IiB5MT0iMjczLjM3NSIgeTI9IjI3My4zNzUiLz48bGluZSBzdHlsZT0ic3Ryb2tlOiMxODE4MTg7c3Ryb2tlLXdpZHRoOjEuMDsiIHgxPSIxMzguNzUiIHgyPSIxMzguNzUiIHkxPSIyNzMuMzc1IiB5Mj0iMjk1LjM3NSIvPjxwb2x5Z29uIGZpbGw9IiMxODE4MTgiIHBvaW50cz0iMTM0Ljc1LDI4NS4zNzUsMTM4Ljc1LDI5NS4zNzUsMTQyLjc1LDI4NS4zNzUsMTM4Ljc1LDI4OS4zNzUiIHN0eWxlPSJzdHJva2U6IzE4MTgxODtzdHJva2Utd2lkdGg6MS4wOyIvPjxsaW5lIHN0eWxlPSJzdHJva2U6IzE4MTgxODtzdHJva2Utd2lkdGg6MS4wOyIgeDE9IjM0NyIgeDI9IjQwNS4yNSIgeTE9IjI3My4zNzUiIHkyPSIyNzMuMzc1Ii8+PGxpbmUgc3R5bGU9InN0cm9rZTojMTgxODE4O3N0cm9rZS13aWR0aDoxLjA7IiB4MT0iNDA1LjI1IiB4Mj0iNDA1LjI1IiB5MT0iMjczLjM3NSIgeTI9IjI5NS4zNzUiLz48cG9seWdvbiBmaWxsPSIjMTgxODE4IiBwb2ludHM9IjQwMS4yNSwyODUuMzc1LDQwNS4yNSwyOTUuMzc1LDQwOS4yNSwyODUuMzc1LDQwNS4yNSwyODkuMzc1IiBzdHlsZT0ic3Ryb2tlOiMxODE4MTg7c3Ryb2tlLXdpZHRoOjEuMDsiLz48bGluZSBzdHlsZT0ic3Ryb2tlOiMxODE4MTg7c3Ryb2tlLXdpZHRoOjEuMDsiIHgxPSIxMzguNzUiIHgyPSIxMzguNzUiIHkxPSIzMjguMjE4OCIgeTI9IjM5OS4wNjI1Ii8+PGxpbmUgc3R5bGU9InN0cm9rZTojMTgxODE4O3N0cm9rZS13aWR0aDoxLjA7IiB4MT0iMTM4Ljc1IiB4Mj0iMjYwIiB5MT0iMzk5LjA2MjUiIHkyPSIzOTkuMDYyNSIvPjxwb2x5Z29uIGZpbGw9IiMxODE4MTgiIHBvaW50cz0iMjUwLDM5NS4wNjI1LDI2MCwzOTkuMDYyNSwyNTAsNDAzLjA2MjUsMjU0LDM5OS4wNjI1IiBzdHlsZT0ic3Ryb2tlOiMxODE4MTg7c3Ryb2tlLXdpZHRoOjEuMDsiLz48bGluZSBzdHlsZT0ic3Ryb2tlOiMxODE4MTg7c3Ryb2tlLXdpZHRoOjEuMDsiIHgxPSI0MDUuMjUiIHgyPSI0MDUuMjUiIHkxPSIzODEuMDYyNSIgeTI9IjM5OS4wNjI1Ii8+PGxpbmUgc3R5bGU9InN0cm9rZTojMTgxODE4O3N0cm9rZS13aWR0aDoxLjA7IiB4MT0iNDA1LjI1IiB4Mj0iMjg0IiB5MT0iMzk5LjA2MjUiIHkyPSIzOTkuMDYyNSIvPjxwb2x5Z29uIGZpbGw9IiMxODE4MTgiIHBvaW50cz0iMjk0LDM5NS4wNjI1LDI4NCwzOTkuMDYyNSwyOTQsNDAzLjA2MjUsMjkwLDM5OS4wNjI1IiBzdHlsZT0ic3Ryb2tlOiMxODE4MTg7c3Ryb2tlLXdpZHRoOjEuMDsiLz48bGluZSBzdHlsZT0ic3Ryb2tlOiMxODE4MTg7c3Ryb2tlLXdpZHRoOjEuMDsiIHgxPSIyNzIiIHgyPSIyNzIiIHkxPSIyNDEuMzc1IiB5Mj0iMjYxLjM3NSIvPjxwb2x5Z29uIGZpbGw9IiMxODE4MTgiIHBvaW50cz0iMjY4LDI1MS4zNzUsMjcyLDI2MS4zNzUsMjc2LDI1MS4zNzUsMjcyLDI1NS4zNzUiIHN0eWxlPSJzdHJva2U6IzE4MTgxODtzdHJva2Utd2lkdGg6MS4wOyIvPjxsaW5lIHN0eWxlPSJzdHJva2U6IzE4MTgxODtzdHJva2Utd2lkdGg6MS4wOyIgeDE9IjI3MiIgeDI9IjI3MiIgeTE9IjQxMS4wNjI1IiB5Mj0iNDMxLjA2MjUiLz48cG9seWdvbiBmaWxsPSIjMTgxODE4IiBwb2ludHM9IjI2OCw0MjEuMDYyNSwyNzIsNDMxLjA2MjUsMjc2LDQyMS4wNjI1LDI3Miw0MjUuMDYyNSIgc3R5bGU9InN0cm9rZTojMTgxODE4O3N0cm9rZS13aWR0aDoxLjA7Ii8+PGxpbmUgc3R5bGU9InN0cm9rZTojMTgxODE4O3N0cm9rZS13aWR0aDoxLjA7IiB4MT0iMjcyIiB4Mj0iMjcyIiB5MT0iNDYzLjkwNjMiIHkyPSI0ODMuOTA2MyIvPjxwb2x5Z29uIGZpbGw9IiMxODE4MTgiIHBvaW50cz0iMjY4LDQ3My45MDYzLDI3Miw0ODMuOTA2MywyNzYsNDczLjkwNjMsMjcyLDQ3Ny45MDYzIiBzdHlsZT0ic3Ryb2tlOiMxODE4MTg7c3Ryb2tlLXdpZHRoOjEuMDsiLz48IS0tU1JDPVtUUDcxUWlDbTM4UmxWV2hUYmh2MlVvWHpXOHIxZUIyWjdTa2pNNm01SXFhZnpFNWREb0txc3Rnb0JSeF9yb192VGwySDRlYmNndm1YdXFIdWFOQVV2WGZuMGFnMVN4cFZScVJLUFpOUjhtYkxXT21rYWh1TVczOHVzdHJaeVkxTktPbXhpcnR0eEZhYUhWOFZVMm5YTmJsRmxIS3prMmpDU3cwWS1pSFNjU1NpTzhrWG51dXlta01DVWlQU0N6YlhvM21YYkZVdzBPVHhSUjZaMEN0WDBKLTMtcXRiNFpIVkExaTNpNnA0T1NTSDFJbjRaMHdCMVZRMnE3cG1DX1JzUXNOMUtZLXgyaEhyMC1yeDJ1Y0wwZExCaDNfeWNCNk85cV8xcEFlTGFMNzZOalNrUFYxYmlGQUpGRm0wXS0tPjwvZz48L3N2Zz4=;" vertex="1" parent="1">
            <mxGeometry x="-230" y="610" width="573" height="516" as="geometry" />
          </mxCell>
        </UserObject>
        <UserObject label="" plantUmlData="{&#xa;  &quot;data&quot;: &quot;@startuml\ntitle Administrator Registration Review System Swimlane Diagram\n\n|Visitor|\nstart\n:Visitor submits registration information to backend system;\n|System|\n:System processes registration information;\n|Administrator|\n:View registration information submitted by visitor;\n|Administrator|\n:Perform review and decide whether to approve the registration of the visitor;\n|Administrator|\nif (Approve registration?) then (Yes)\n  |Visitor|\n  :Visitor becomes a member;\nelse (No)\n  |Visitor|\n  :Visitor&#39;s registration fails;\n  |System|\n  :Send SMS notification of registration failure;\n  |System|\n  :Send registration result notification to visitor;\nendif\n\nstop\n@enduml&quot;,&#xa;  &quot;format&quot;: &quot;svg&quot;&#xa;}" id="c8ZHbjYaLbXA3wWcWkqa-3">
          <mxCell style="shape=image;noLabel=1;verticalAlign=top;aspect=fixed;imageAspect=0;image=data:image/svg+xml,PD94bWwgdmVyc2lvbj0iMS4wIiBlbmNvZGluZz0idXMtYXNjaWkiIHN0YW5kYWxvbmU9Im5vIj8+PHN2ZyB4bWxucz0iaHR0cDovL3d3dy53My5vcmcvMjAwMC9zdmciIHhtbG5zOnhsaW5rPSJodHRwOi8vd3d3LnczLm9yZy8xOTk5L3hsaW5rIiBjb250ZW50U3R5bGVUeXBlPSJ0ZXh0L2NzcyIgaGVpZ2h0PSI1OTNweCIgcHJlc2VydmVBc3BlY3RSYXRpbz0ibm9uZSIgc3R5bGU9IndpZHRoOjE1MDZweDtoZWlnaHQ6NTkzcHg7YmFja2dyb3VuZDojRkZGRkZGOyIgdmVyc2lvbj0iMS4xIiB2aWV3Qm94PSIwIDAgMTUwNiA1OTMiIHdpZHRoPSIxNTA2cHgiIHpvb21BbmRQYW49Im1hZ25pZnkiPjxkZWZzLz48Zz48dGV4dCBmaWxsPSIjMDAwMDAwIiBmb250LWZhbWlseT0ic2Fucy1zZXJpZiIgZm9udC1zaXplPSIxNCIgZm9udC13ZWlnaHQ9ImJvbGQiIGxlbmd0aEFkanVzdD0ic3BhY2luZyIgdGV4dExlbmd0aD0iNDA1IiB4PSI1NDkiIHk9IjMzLjIzNDQiPkFkbWluaXN0cmF0b3IgUmVnaXN0cmF0aW9uIFJldmlldyBTeXN0ZW0gU3dpbWxhbmUgRGlhZ3JhbTwvdGV4dD48cmVjdCBmaWxsPSJub25lIiBoZWlnaHQ9IjE5LjI2NTYiIHN0eWxlPSJzdHJva2U6bm9uZTtzdHJva2Utd2lkdGg6MS4wOyIgd2lkdGg9IjE0NzMiIHg9IjE1IiB5PSI0Ni45ODQ0Ii8+PGVsbGlwc2UgY3g9IjI0OCIgY3k9IjgxLjI1IiBmaWxsPSIjMjIyMjIyIiByeD0iMTAiIHJ5PSIxMCIgc3R5bGU9InN0cm9rZTojMjIyMjIyO3N0cm9rZS13aWR0aDoxLjA7Ii8+PHJlY3QgZmlsbD0iI0YxRjFGMSIgaGVpZ2h0PSIzMi44NDM4IiByeD0iMTIuNSIgcnk9IjEyLjUiIHN0eWxlPSJzdHJva2U6IzE4MTgxODtzdHJva2Utd2lkdGg6MC41OyIgd2lkdGg9IjQwMCIgeD0iNDgiIHk9IjExMS4yNSIvPjx0ZXh0IGZpbGw9IiMwMDAwMDAiIGZvbnQtZmFtaWx5PSJzYW5zLXNlcmlmIiBmb250LXNpemU9IjEyIiBsZW5ndGhBZGp1c3Q9InNwYWNpbmciIHRleHRMZW5ndGg9IjM4MCIgeD0iNTgiIHk9IjEzMi41OTM4Ij5WaXNpdG9yIHN1Ym1pdHMgcmVnaXN0cmF0aW9uIGluZm9ybWF0aW9uIHRvIGJhY2tlbmQgc3lzdGVtPC90ZXh0PjxyZWN0IGZpbGw9IiNGMUYxRjEiIGhlaWdodD0iMzIuODQzOCIgcng9IjEyLjUiIHJ5PSIxMi41IiBzdHlsZT0ic3Ryb2tlOiMxODE4MTg7c3Ryb2tlLXdpZHRoOjAuNTsiIHdpZHRoPSIxNzgiIHg9IjIxIiB5PSIzNjYuNjI1Ii8+PHRleHQgZmlsbD0iIzAwMDAwMCIgZm9udC1mYW1pbHk9InNhbnMtc2VyaWYiIGZvbnQtc2l6ZT0iMTIiIGxlbmd0aEFkanVzdD0ic3BhY2luZyIgdGV4dExlbmd0aD0iMTU4IiB4PSIzMSIgeT0iMzg3Ljk2ODgiPlZpc2l0b3IgYmVjb21lcyBhIG1lbWJlcjwvdGV4dD48cmVjdCBmaWxsPSIjRjFGMUYxIiBoZWlnaHQ9IjMyLjg0MzgiIHJ4PSIxMi41IiByeT0iMTIuNSIgc3R5bGU9InN0cm9rZTojMTgxODE4O3N0cm9rZS13aWR0aDowLjU7IiB3aWR0aD0iMjAzIiB4PSIyODQuNSIgeT0iMzY2LjYyNSIvPjx0ZXh0IGZpbGw9IiMwMDAwMDAiIGZvbnQtZmFtaWx5PSJzYW5zLXNlcmlmIiBmb250LXNpemU9IjEyIiBsZW5ndGhBZGp1c3Q9InNwYWNpbmciIHRleHRMZW5ndGg9IjE4MyIgeD0iMjk0LjUiIHk9IjM4Ny45Njg4Ij5WaXNpdG9yJ3MgcmVnaXN0cmF0aW9uIGZhaWxzPC90ZXh0PjxsaW5lIHN0eWxlPSJzdHJva2U6IzAwMDAwMDtzdHJva2Utd2lkdGg6MS41OyIgeDE9IjE1IiB4Mj0iMTUiIHkxPSI0Ni45ODQ0IiB5Mj0iNTgxLjE1NjMiLz48cmVjdCBmaWxsPSIjRjFGMUYxIiBoZWlnaHQ9IjMyLjg0MzgiIHJ4PSIxMi41IiByeT0iMTIuNSIgc3R5bGU9InN0cm9rZTojMTgxODE4O3N0cm9rZS13aWR0aDowLjU7IiB3aWR0aD0iMjkyIiB4PSI0OTcuNSIgeT0iMTY0LjA5MzgiLz48dGV4dCBmaWxsPSIjMDAwMDAwIiBmb250LWZhbWlseT0ic2Fucy1zZXJpZiIgZm9udC1zaXplPSIxMiIgbGVuZ3RoQWRqdXN0PSJzcGFjaW5nIiB0ZXh0TGVuZ3RoPSIyNzIiIHg9IjUwNy41IiB5PSIxODUuNDM3NSI+U3lzdGVtIHByb2Nlc3NlcyByZWdpc3RyYXRpb24gaW5mb3JtYXRpb248L3RleHQ+PHJlY3QgZmlsbD0iI0YxRjFGMSIgaGVpZ2h0PSIzMi44NDM4IiByeD0iMTIuNSIgcnk9IjEyLjUiIHN0eWxlPSJzdHJva2U6IzE4MTgxODtzdHJva2Utd2lkdGg6MC41OyIgd2lkdGg9IjMxNSIgeD0iNjI0IiB5PSI0MTkuNDY4OCIvPjx0ZXh0IGZpbGw9IiMwMDAwMDAiIGZvbnQtZmFtaWx5PSJzYW5zLXNlcmlmIiBmb250LXNpemU9IjEyIiBsZW5ndGhBZGp1c3Q9InNwYWNpbmciIHRleHRMZW5ndGg9IjI5NSIgeD0iNjM0IiB5PSI0NDAuODEyNSI+U2VuZCBTTVMgbm90aWZpY2F0aW9uIG9mIHJlZ2lzdHJhdGlvbiBmYWlsdXJlPC90ZXh0PjxyZWN0IGZpbGw9IiNGMUYxRjEiIGhlaWdodD0iMzIuODQzOCIgcng9IjEyLjUiIHJ5PSIxMi41IiBzdHlsZT0ic3Ryb2tlOiMxODE4MTg7c3Ryb2tlLXdpZHRoOjAuNTsiIHdpZHRoPSIzMzQiIHg9IjYxNC41IiB5PSI0NzIuMzEyNSIvPjx0ZXh0IGZpbGw9IiMwMDAwMDAiIGZvbnQtZmFtaWx5PSJzYW5zLXNlcmlmIiBmb250LXNpemU9IjEyIiBsZW5ndGhBZGp1c3Q9InNwYWNpbmciIHRleHRMZW5ndGg9IjMxNCIgeD0iNjI0LjUiIHk9IjQ5My42NTYzIj5TZW5kIHJlZ2lzdHJhdGlvbiByZXN1bHQgbm90aWZpY2F0aW9uIHRvIHZpc2l0b3I8L3RleHQ+PGVsbGlwc2UgY3g9IjY0My41IiBjeT0iNTcwLjE1NjMiIGZpbGw9Im5vbmUiIHJ4PSIxMSIgcnk9IjExIiBzdHlsZT0ic3Ryb2tlOiMyMjIyMjI7c3Ryb2tlLXdpZHRoOjEuMDsiLz48ZWxsaXBzZSBjeD0iNjQzLjUiIGN5PSI1NzAuMTU2MyIgZmlsbD0iIzIyMjIyMiIgcng9IjYiIHJ5PSI2IiBzdHlsZT0ic3Ryb2tlOiMxMTExMTE7c3Ryb2tlLXdpZHRoOjEuMDsiLz48bGluZSBzdHlsZT0ic3Ryb2tlOiMwMDAwMDA7c3Ryb2tlLXdpZHRoOjEuNTsiIHgxPSI0OTEuNSIgeDI9IjQ5MS41IiB5MT0iNDYuOTg0NCIgeTI9IjU4MS4xNTYzIi8+PHJlY3QgZmlsbD0iI0YxRjFGMSIgaGVpZ2h0PSIzMi44NDM4IiByeD0iMTIuNSIgcnk9IjEyLjUiIHN0eWxlPSJzdHJva2U6IzE4MTgxODtzdHJva2Utd2lkdGg6MC41OyIgd2lkdGg9IjM0NyIgeD0iMTA0NiIgeT0iMjE2LjkzNzUiLz48dGV4dCBmaWxsPSIjMDAwMDAwIiBmb250LWZhbWlseT0ic2Fucy1zZXJpZiIgZm9udC1zaXplPSIxMiIgbGVuZ3RoQWRqdXN0PSJzcGFjaW5nIiB0ZXh0TGVuZ3RoPSIzMjciIHg9IjEwNTYiIHk9IjIzOC4yODEzIj5WaWV3IHJlZ2lzdHJhdGlvbiBpbmZvcm1hdGlvbiBzdWJtaXR0ZWQgYnkgdmlzaXRvcjwvdGV4dD48cmVjdCBmaWxsPSIjRjFGMUYxIiBoZWlnaHQ9IjMyLjg0MzgiIHJ4PSIxMi41IiByeT0iMTIuNSIgc3R5bGU9InN0cm9rZTojMTgxODE4O3N0cm9rZS13aWR0aDowLjU7IiB3aWR0aD0iNTIyIiB4PSI5NTguNSIgeT0iMjY5Ljc4MTMiLz48dGV4dCBmaWxsPSIjMDAwMDAwIiBmb250LWZhbWlseT0ic2Fucy1zZXJpZiIgZm9udC1zaXplPSIxMiIgbGVuZ3RoQWRqdXN0PSJzcGFjaW5nIiB0ZXh0TGVuZ3RoPSI1MDIiIHg9Ijk2OC41IiB5PSIyOTEuMTI1Ij5QZXJmb3JtIHJldmlldyBhbmQgZGVjaWRlIHdoZXRoZXIgdG8gYXBwcm92ZSB0aGUgcmVnaXN0cmF0aW9uIG9mIHRoZSB2aXNpdG9yPC90ZXh0Pjxwb2x5Z29uIGZpbGw9IiNGMUYxRjEiIHBvaW50cz0iMTE1Ni41LDMyMi42MjUsMTI4Mi41LDMyMi42MjUsMTI5NC41LDMzNC42MjUsMTI4Mi41LDM0Ni42MjUsMTE1Ni41LDM0Ni42MjUsMTE0NC41LDMzNC42MjUsMTE1Ni41LDMyMi42MjUiIHN0eWxlPSJzdHJva2U6IzE4MTgxODtzdHJva2Utd2lkdGg6MC41OyIvPjx0ZXh0IGZpbGw9IiMwMDAwMDAiIGZvbnQtZmFtaWx5PSJzYW5zLXNlcmlmIiBmb250LXNpemU9IjExIiBsZW5ndGhBZGp1c3Q9InNwYWNpbmciIHRleHRMZW5ndGg9IjEyNiIgeD0iMTE1Ni41IiB5PSIzMzkuMTM2NyI+QXBwcm92ZSByZWdpc3RyYXRpb24/PC90ZXh0Pjx0ZXh0IGZpbGw9IiMwMDAwMDAiIGZvbnQtZmFtaWx5PSJzYW5zLXNlcmlmIiBmb250LXNpemU9IjExIiBsZW5ndGhBZGp1c3Q9InNwYWNpbmciIHRleHRMZW5ndGg9IjE4IiB4PSIxMTI2LjUiIHk9IjMzMy4yNSI+WWVzPC90ZXh0Pjx0ZXh0IGZpbGw9IiMwMDAwMDAiIGZvbnQtZmFtaWx5PSJzYW5zLXNlcmlmIiBmb250LXNpemU9IjExIiBsZW5ndGhBZGp1c3Q9InNwYWNpbmciIHRleHRMZW5ndGg9IjEyIiB4PSIxMjk0LjUiIHk9IjMzMy4yNSI+Tm88L3RleHQ+PHBvbHlnb24gZmlsbD0iI0YxRjFGMSIgcG9pbnRzPSIxMjE5LjUsNTE1LjE1NjMsMTIzMS41LDUyNy4xNTYzLDEyMTkuNSw1MzkuMTU2MywxMjA3LjUsNTI3LjE1NjMsMTIxOS41LDUxNS4xNTYzIiBzdHlsZT0ic3Ryb2tlOiMxODE4MTg7c3Ryb2tlLXdpZHRoOjAuNTsiLz48bGluZSBzdHlsZT0ic3Ryb2tlOiMwMDAwMDA7c3Ryb2tlLXdpZHRoOjEuNTsiIHgxPSI5NTIuNSIgeDI9Ijk1Mi41IiB5MT0iNDYuOTg0NCIgeTI9IjU4MS4xNTYzIi8+PGxpbmUgc3R5bGU9InN0cm9rZTojMDAwMDAwO3N0cm9rZS13aWR0aDoxLjU7IiB4MT0iMTQ4NC41IiB4Mj0iMTQ4NC41IiB5MT0iNDYuOTg0NCIgeTI9IjU4MS4xNTYzIi8+PGxpbmUgc3R5bGU9InN0cm9rZTojMTgxODE4O3N0cm9rZS13aWR0aDoxLjA7IiB4MT0iMjQ4IiB4Mj0iMjQ4IiB5MT0iOTEuMjUiIHkyPSIxMTEuMjUiLz48cG9seWdvbiBmaWxsPSIjMTgxODE4IiBwb2ludHM9IjI0NCwxMDEuMjUsMjQ4LDExMS4yNSwyNTIsMTAxLjI1LDI0OCwxMDUuMjUiIHN0eWxlPSJzdHJva2U6IzE4MTgxODtzdHJva2Utd2lkdGg6MS4wOyIvPjxsaW5lIHN0eWxlPSJzdHJva2U6IzE4MTgxODtzdHJva2Utd2lkdGg6MS4wOyIgeDE9Ijc4MS41IiB4Mj0iNzgxLjUiIHkxPSI0NTIuMzEyNSIgeTI9IjQ3Mi4zMTI1Ii8+PHBvbHlnb24gZmlsbD0iIzE4MTgxOCIgcG9pbnRzPSI3NzcuNSw0NjIuMzEyNSw3ODEuNSw0NzIuMzEyNSw3ODUuNSw0NjIuMzEyNSw3ODEuNSw0NjYuMzEyNSIgc3R5bGU9InN0cm9rZTojMTgxODE4O3N0cm9rZS13aWR0aDoxLjA7Ii8+PGxpbmUgc3R5bGU9InN0cm9rZTojMTgxODE4O3N0cm9rZS13aWR0aDoxLjA7IiB4MT0iMTIxOS41IiB4Mj0iMTIxOS41IiB5MT0iMjQ5Ljc4MTMiIHkyPSIyNjkuNzgxMyIvPjxwb2x5Z29uIGZpbGw9IiMxODE4MTgiIHBvaW50cz0iMTIxNS41LDI1OS43ODEzLDEyMTkuNSwyNjkuNzgxMywxMjIzLjUsMjU5Ljc4MTMsMTIxOS41LDI2My43ODEzIiBzdHlsZT0ic3Ryb2tlOiMxODE4MTg7c3Ryb2tlLXdpZHRoOjEuMDsiLz48bGluZSBzdHlsZT0ic3Ryb2tlOiMxODE4MTg7c3Ryb2tlLXdpZHRoOjEuMDsiIHgxPSIxMjE5LjUiIHgyPSIxMjE5LjUiIHkxPSIzMDIuNjI1IiB5Mj0iMzIyLjYyNSIvPjxwb2x5Z29uIGZpbGw9IiMxODE4MTgiIHBvaW50cz0iMTIxNS41LDMxMi42MjUsMTIxOS41LDMyMi42MjUsMTIyMy41LDMxMi42MjUsMTIxOS41LDMxNi42MjUiIHN0eWxlPSJzdHJva2U6IzE4MTgxODtzdHJva2Utd2lkdGg6MS4wOyIvPjxsaW5lIHN0eWxlPSJzdHJva2U6IzE4MTgxODtzdHJva2Utd2lkdGg6MS4wOyIgeDE9IjI0OCIgeDI9IjI0OCIgeTE9IjE0NC4wOTM4IiB5Mj0iMTQ5LjA5MzgiLz48bGluZSBzdHlsZT0ic3Ryb2tlOiMxODE4MTg7c3Ryb2tlLXdpZHRoOjEuMDsiIHgxPSIyNDgiIHgyPSI2NDMuNSIgeTE9IjE0OS4wOTM4IiB5Mj0iMTQ5LjA5MzgiLz48bGluZSBzdHlsZT0ic3Ryb2tlOiMxODE4MTg7c3Ryb2tlLXdpZHRoOjEuMDsiIHgxPSI2NDMuNSIgeDI9IjY0My41IiB5MT0iMTQ5LjA5MzgiIHkyPSIxNjQuMDkzOCIvPjxwb2x5Z29uIGZpbGw9IiMxODE4MTgiIHBvaW50cz0iNjM5LjUsMTU0LjA5MzgsNjQzLjUsMTY0LjA5MzgsNjQ3LjUsMTU0LjA5MzgsNjQzLjUsMTU4LjA5MzgiIHN0eWxlPSJzdHJva2U6IzE4MTgxODtzdHJva2Utd2lkdGg6MS4wOyIvPjxsaW5lIHN0eWxlPSJzdHJva2U6IzE4MTgxODtzdHJva2Utd2lkdGg6MS4wOyIgeDE9IjY0My41IiB4Mj0iNjQzLjUiIHkxPSIxOTYuOTM3NSIgeTI9IjIwMS45Mzc1Ii8+PGxpbmUgc3R5bGU9InN0cm9rZTojMTgxODE4O3N0cm9rZS13aWR0aDoxLjA7IiB4MT0iNjQzLjUiIHgyPSIxMjE5LjUiIHkxPSIyMDEuOTM3NSIgeTI9IjIwMS45Mzc1Ii8+PGxpbmUgc3R5bGU9InN0cm9rZTojMTgxODE4O3N0cm9rZS13aWR0aDoxLjA7IiB4MT0iMTIxOS41IiB4Mj0iMTIxOS41IiB5MT0iMjAxLjkzNzUiIHkyPSIyMTYuOTM3NSIvPjxwb2x5Z29uIGZpbGw9IiMxODE4MTgiIHBvaW50cz0iMTIxNS41LDIwNi45Mzc1LDEyMTkuNSwyMTYuOTM3NSwxMjIzLjUsMjA2LjkzNzUsMTIxOS41LDIxMC45Mzc1IiBzdHlsZT0ic3Ryb2tlOiMxODE4MTg7c3Ryb2tlLXdpZHRoOjEuMDsiLz48bGluZSBzdHlsZT0ic3Ryb2tlOiMxODE4MTg7c3Ryb2tlLXdpZHRoOjEuMDsiIHgxPSIzODYiIHgyPSIzODYiIHkxPSIzOTkuNDY4OCIgeTI9IjQwNC40Njg4Ii8+PGxpbmUgc3R5bGU9InN0cm9rZTojMTgxODE4O3N0cm9rZS13aWR0aDoxLjA7IiB4MT0iMzg2IiB4Mj0iNzgxLjUiIHkxPSI0MDQuNDY4OCIgeTI9IjQwNC40Njg4Ii8+PGxpbmUgc3R5bGU9InN0cm9rZTojMTgxODE4O3N0cm9rZS13aWR0aDoxLjA7IiB4MT0iNzgxLjUiIHgyPSI3ODEuNSIgeTE9IjQwNC40Njg4IiB5Mj0iNDE5LjQ2ODgiLz48cG9seWdvbiBmaWxsPSIjMTgxODE4IiBwb2ludHM9Ijc3Ny41LDQwOS40Njg4LDc4MS41LDQxOS40Njg4LDc4NS41LDQwOS40Njg4LDc4MS41LDQxMy40Njg4IiBzdHlsZT0ic3Ryb2tlOiMxODE4MTg7c3Ryb2tlLXdpZHRoOjEuMDsiLz48bGluZSBzdHlsZT0ic3Ryb2tlOiMxODE4MTg7c3Ryb2tlLXdpZHRoOjEuMDsiIHgxPSIxMTQ0LjUiIHgyPSIxMTAiIHkxPSIzMzQuNjI1IiB5Mj0iMzM0LjYyNSIvPjxsaW5lIHN0eWxlPSJzdHJva2U6IzE4MTgxODtzdHJva2Utd2lkdGg6MS4wOyIgeDE9IjExMCIgeDI9IjExMCIgeTE9IjMzNC42MjUiIHkyPSIzNjYuNjI1Ii8+PHBvbHlnb24gZmlsbD0iIzE4MTgxOCIgcG9pbnRzPSIxMDYsMzU2LjYyNSwxMTAsMzY2LjYyNSwxMTQsMzU2LjYyNSwxMTAsMzYwLjYyNSIgc3R5bGU9InN0cm9rZTojMTgxODE4O3N0cm9rZS13aWR0aDoxLjA7Ii8+PGxpbmUgc3R5bGU9InN0cm9rZTojMTgxODE4O3N0cm9rZS13aWR0aDoxLjA7IiB4MT0iMTI5NC41IiB4Mj0iMTMwNi41IiB5MT0iMzM0LjYyNSIgeTI9IjMzNC42MjUiLz48bGluZSBzdHlsZT0ic3Ryb2tlOiMxODE4MTg7c3Ryb2tlLXdpZHRoOjEuMDsiIHgxPSIxMzA2LjUiIHgyPSIxMzA2LjUiIHkxPSIzMzQuNjI1IiB5Mj0iMzUyLjYyNSIvPjxsaW5lIHN0eWxlPSJzdHJva2U6IzE4MTgxODtzdHJva2Utd2lkdGg6MS4wOyIgeDE9IjEzMDYuNSIgeDI9IjM4NiIgeTE9IjM1Mi42MjUiIHkyPSIzNTIuNjI1Ii8+PGxpbmUgc3R5bGU9InN0cm9rZTojMTgxODE4O3N0cm9rZS13aWR0aDoxLjA7IiB4MT0iMzg2IiB4Mj0iMzg2IiB5MT0iMzUyLjYyNSIgeTI9IjM2Ni42MjUiLz48cG9seWdvbiBmaWxsPSIjMTgxODE4IiBwb2ludHM9IjM4MiwzNTYuNjI1LDM4NiwzNjYuNjI1LDM5MCwzNTYuNjI1LDM4NiwzNjAuNjI1IiBzdHlsZT0ic3Ryb2tlOiMxODE4MTg7c3Ryb2tlLXdpZHRoOjEuMDsiLz48bGluZSBzdHlsZT0ic3Ryb2tlOiMxODE4MTg7c3Ryb2tlLXdpZHRoOjEuMDsiIHgxPSIxMTAiIHgyPSIxMTAiIHkxPSIzOTkuNDY4OCIgeTI9IjUyNy4xNTYzIi8+PGxpbmUgc3R5bGU9InN0cm9rZTojMTgxODE4O3N0cm9rZS13aWR0aDoxLjA7IiB4MT0iMTEwIiB4Mj0iMTIwNy41IiB5MT0iNTI3LjE1NjMiIHkyPSI1MjcuMTU2MyIvPjxwb2x5Z29uIGZpbGw9IiMxODE4MTgiIHBvaW50cz0iMTE5Ny41LDUyMy4xNTYzLDEyMDcuNSw1MjcuMTU2MywxMTk3LjUsNTMxLjE1NjMsMTIwMS41LDUyNy4xNTYzIiBzdHlsZT0ic3Ryb2tlOiMxODE4MTg7c3Ryb2tlLXdpZHRoOjEuMDsiLz48bGluZSBzdHlsZT0ic3Ryb2tlOiMxODE4MTg7c3Ryb2tlLXdpZHRoOjEuMDsiIHgxPSI3ODEuNSIgeDI9Ijc4MS41IiB5MT0iNTA1LjE1NjMiIHkyPSI1MDkuMTU2MyIvPjxsaW5lIHN0eWxlPSJzdHJva2U6IzE4MTgxODtzdHJva2Utd2lkdGg6MS4wOyIgeDE9Ijc4MS41IiB4Mj0iMTI0OS41IiB5MT0iNTA5LjE1NjMiIHkyPSI1MDkuMTU2MyIvPjxsaW5lIHN0eWxlPSJzdHJva2U6IzE4MTgxODtzdHJva2Utd2lkdGg6MS4wOyIgeDE9IjEyNDkuNSIgeDI9IjEyNDkuNSIgeTE9IjUwOS4xNTYzIiB5Mj0iNTI3LjE1NjMiLz48bGluZSBzdHlsZT0ic3Ryb2tlOiMxODE4MTg7c3Ryb2tlLXdpZHRoOjEuMDsiIHgxPSIxMjQ5LjUiIHgyPSIxMjMxLjUiIHkxPSI1MjcuMTU2MyIgeTI9IjUyNy4xNTYzIi8+PHBvbHlnb24gZmlsbD0iIzE4MTgxOCIgcG9pbnRzPSIxMjQxLjUsNTIzLjE1NjMsMTIzMS41LDUyNy4xNTYzLDEyNDEuNSw1MzEuMTU2MywxMjM3LjUsNTI3LjE1NjMiIHN0eWxlPSJzdHJva2U6IzE4MTgxODtzdHJva2Utd2lkdGg6MS4wOyIvPjxsaW5lIHN0eWxlPSJzdHJva2U6IzE4MTgxODtzdHJva2Utd2lkdGg6MS4wOyIgeDE9IjEyMTkuNSIgeDI9IjEyMTkuNSIgeTE9IjUzOS4xNTYzIiB5Mj0iNTQ0LjE1NjMiLz48bGluZSBzdHlsZT0ic3Ryb2tlOiMxODE4MTg7c3Ryb2tlLXdpZHRoOjEuMDsiIHgxPSIxMjE5LjUiIHgyPSI2NDMuNSIgeTE9IjU0NC4xNTYzIiB5Mj0iNTQ0LjE1NjMiLz48bGluZSBzdHlsZT0ic3Ryb2tlOiMxODE4MTg7c3Ryb2tlLXdpZHRoOjEuMDsiIHgxPSI2NDMuNSIgeDI9IjY0My41IiB5MT0iNTQ0LjE1NjMiIHkyPSI1NTkuMTU2MyIvPjxwb2x5Z29uIGZpbGw9IiMxODE4MTgiIHBvaW50cz0iNjM5LjUsNTQ5LjE1NjMsNjQzLjUsNTU5LjE1NjMsNjQ3LjUsNTQ5LjE1NjMsNjQzLjUsNTUzLjE1NjMiIHN0eWxlPSJzdHJva2U6IzE4MTgxODtzdHJva2Utd2lkdGg6MS4wOyIvPjx0ZXh0IGZpbGw9IiMwMDAwMDAiIGZvbnQtZmFtaWx5PSJzYW5zLXNlcmlmIiBmb250LXNpemU9IjE4IiBsZW5ndGhBZGp1c3Q9InNwYWNpbmciIHRleHRMZW5ndGg9IjYzIiB4PSIyMjEuNzUiIHk9IjY0Ij5WaXNpdG9yPC90ZXh0Pjx0ZXh0IGZpbGw9IiMwMDAwMDAiIGZvbnQtZmFtaWx5PSJzYW5zLXNlcmlmIiBmb250LXNpemU9IjE4IiBsZW5ndGhBZGp1c3Q9InNwYWNpbmciIHRleHRMZW5ndGg9IjU0IiB4PSI2OTUiIHk9IjY0Ij5TeXN0ZW08L3RleHQ+PHRleHQgZmlsbD0iIzAwMDAwMCIgZm9udC1mYW1pbHk9InNhbnMtc2VyaWYiIGZvbnQtc2l6ZT0iMTgiIGxlbmd0aEFkanVzdD0ic3BhY2luZyIgdGV4dExlbmd0aD0iMTE3IiB4PSIxMTYwIiB5PSI2NCI+QWRtaW5pc3RyYXRvcjwvdGV4dD48IS0tU1JDPVtUUEJGUWlDbTNDUmxWV2hUYmh2MlVuWTVOSlY2MGVLVGRLSGtuTTh4TTRmMjhHeV92Uy13UGNqa2JqN2xxd1ZGNWY4UXVMWHYyaUlJaENHNDd0WVVwbkkzNVhyWDNfY0wxSnRhRlZkUTFlR05pa1RhbEo3M1lQWUs2V29CSk1Cc0ltdFM1Znc0OFRzaEtOMG4tVmFpNEdmUlZjNmVXMlZyV25kY0NPRlBCX0VRNTRqYW5jcVBYTFJrWHo2MTZqdVNFX2lJaEEydUdaVVJWSTNvWmNiYUw2VlF0d2hCMmFrZzRGZUJvV05Kd0R5c1FoMTNxN2V6Q0JoZlJiRVU3Nko3MVJ1N2R0U1o1bzN4SER1UFdEenEwTXg5NWJYNmh2NU95RVdCTDdjaTZJNXhZcmw4cXZfeWRBTVEzc0ZwSi0zUWN1eWxhUl9jNEFBR2VfQXNvSi1xSlZXR05aS2N2QlFNalBYNlRlajQwTjk2VnFyaWxXNDBdLS0+PC9nPjwvc3ZnPg==;" vertex="1" parent="1">
            <mxGeometry x="390" y="600" width="1506" height="593" as="geometry" />
          </mxCell>
        </UserObject>
        <UserObject label="" plantUmlData="{&#xa;  &quot;data&quot;: &quot;@startuml\n\n|Administrator|\nstart\n|Administrator|\n:Administrator logs into backend system;\n|Administrator|\n:Administrator enters into document management system;\n|System|\nswitch(upload or download?)\ncase(Upload files)\n    |System|\n    :System prompts user to select file from local device;\n    |Administrator|\n    :selects file  \\n to \\n upload;  \n    |System|\n    :Upload selected files;\ncase(Download files)\n|System|\n    :System prompts user to  \\n select file from system;\n   |Administrator|\n  :selects file to download;\n  |System|\n    :Download selected files;\nendswitch\nif (File operation successful?) then (Yes)\n  :System displays success message;\nelse (No)\n  :System displays error message;\nendif\nstop\n\n@enduml&quot;,&#xa;  &quot;format&quot;: &quot;svg&quot;&#xa;}" id="c8ZHbjYaLbXA3wWcWkqa-4">
          <mxCell style="shape=image;noLabel=1;verticalAlign=top;aspect=fixed;imageAspect=0;image=data:image/svg+xml,PD94bWwgdmVyc2lvbj0iMS4wIiBlbmNvZGluZz0idXMtYXNjaWkiIHN0YW5kYWxvbmU9Im5vIj8+PHN2ZyB4bWxucz0iaHR0cDovL3d3dy53My5vcmcvMjAwMC9zdmciIHhtbG5zOnhsaW5rPSJodHRwOi8vd3d3LnczLm9yZy8xOTk5L3hsaW5rIiBjb250ZW50U3R5bGVUeXBlPSJ0ZXh0L2NzcyIgaGVpZ2h0PSI2MzNweCIgcHJlc2VydmVBc3BlY3RSYXRpbz0ibm9uZSIgc3R5bGU9IndpZHRoOjEwNzFweDtoZWlnaHQ6NjMzcHg7YmFja2dyb3VuZDojRkZGRkZGOyIgdmVyc2lvbj0iMS4xIiB2aWV3Qm94PSIwIDAgMTA3MSA2MzMiIHdpZHRoPSIxMDcxcHgiIHpvb21BbmRQYW49Im1hZ25pZnkiPjxkZWZzLz48Zz48cmVjdCBmaWxsPSJub25lIiBoZWlnaHQ9IjE5LjI2NTYiIHN0eWxlPSJzdHJva2U6bm9uZTtzdHJva2Utd2lkdGg6MS4wOyIgd2lkdGg9IjEwMzgiIHg9IjE1IiB5PSIxMSIvPjxlbGxpcHNlIGN4PSIyMDIuNSIgY3k9IjQ1LjI2NTYiIGZpbGw9IiMyMjIyMjIiIHJ4PSIxMCIgcnk9IjEwIiBzdHlsZT0ic3Ryb2tlOiMyMjIyMjI7c3Ryb2tlLXdpZHRoOjEuMDsiLz48cmVjdCBmaWxsPSIjRjFGMUYxIiBoZWlnaHQ9IjMyLjg0MzgiIHJ4PSIxMi41IiByeT0iMTIuNSIgc3R5bGU9InN0cm9rZTojMTgxODE4O3N0cm9rZS13aWR0aDowLjU7IiB3aWR0aD0iMjcwIiB4PSI2Ny41IiB5PSI3NS4yNjU2Ii8+PHRleHQgZmlsbD0iIzAwMDAwMCIgZm9udC1mYW1pbHk9InNhbnMtc2VyaWYiIGZvbnQtc2l6ZT0iMTIiIGxlbmd0aEFkanVzdD0ic3BhY2luZyIgdGV4dExlbmd0aD0iMjUwIiB4PSI3Ny41IiB5PSI5Ni42MDk0Ij5BZG1pbmlzdHJhdG9yIGxvZ3MgaW50byBiYWNrZW5kIHN5c3RlbTwvdGV4dD48cmVjdCBmaWxsPSIjRjFGMUYxIiBoZWlnaHQ9IjMyLjg0MzgiIHJ4PSIxMi41IiByeT0iMTIuNSIgc3R5bGU9InN0cm9rZTojMTgxODE4O3N0cm9rZS13aWR0aDowLjU7IiB3aWR0aD0iMzYzIiB4PSIyMSIgeT0iMTI4LjEwOTQiLz48dGV4dCBmaWxsPSIjMDAwMDAwIiBmb250LWZhbWlseT0ic2Fucy1zZXJpZiIgZm9udC1zaXplPSIxMiIgbGVuZ3RoQWRqdXN0PSJzcGFjaW5nIiB0ZXh0TGVuZ3RoPSIzNDMiIHg9IjMxIiB5PSIxNDkuNDUzMSI+QWRtaW5pc3RyYXRvciBlbnRlcnMgaW50byBkb2N1bWVudCBtYW5hZ2VtZW50IHN5c3RlbTwvdGV4dD48cmVjdCBmaWxsPSIjRjFGMUYxIiBoZWlnaHQ9IjU4LjUzMTMiIHJ4PSIxMi41IiByeT0iMTIuNSIgc3R5bGU9InN0cm9rZTojMTgxODE4O3N0cm9rZS13aWR0aDowLjU7IiB3aWR0aD0iMTA5IiB4PSI0OSIgeT0iMzA0LjE4NzUiLz48dGV4dCBmaWxsPSIjMDAwMDAwIiBmb250LWZhbWlseT0ic2Fucy1zZXJpZiIgZm9udC1zaXplPSIxMiIgbGVuZ3RoQWRqdXN0PSJzcGFjaW5nIiB0ZXh0TGVuZ3RoPSI3NyIgeD0iNTkiIHk9IjMyNS41MzEzIj5zZWxlY3RzIGZpbGU8L3RleHQ+PHRleHQgZmlsbD0iIzAwMDAwMCIgZm9udC1mYW1pbHk9InNhbnMtc2VyaWYiIGZvbnQtc2l6ZT0iMTIiIGxlbmd0aEFkanVzdD0ic3BhY2luZyIgdGV4dExlbmd0aD0iMTMiIHg9IjY1IiB5PSIzMzguMzc1Ij50bzwvdGV4dD48dGV4dCBmaWxsPSIjMDAwMDAwIiBmb250LWZhbWlseT0ic2Fucy1zZXJpZiIgZm9udC1zaXplPSIxMiIgbGVuZ3RoQWRqdXN0PSJzcGFjaW5nIiB0ZXh0TGVuZ3RoPSI0MSIgeD0iNjUiIHk9IjM1MS4yMTg4Ij51cGxvYWQ8L3RleHQ+PHJlY3QgZmlsbD0iI0YxRjFGMSIgaGVpZ2h0PSIzMi44NDM4IiByeD0iMTIuNSIgcnk9IjEyLjUiIHN0eWxlPSJzdHJva2U6IzE4MTgxODtzdHJva2Utd2lkdGg6MC41OyIgd2lkdGg9IjE3NiIgeD0iMzAzLjUiIHk9IjMxNy4wMzEzIi8+PHRleHQgZmlsbD0iIzAwMDAwMCIgZm9udC1mYW1pbHk9InNhbnMtc2VyaWYiIGZvbnQtc2l6ZT0iMTIiIGxlbmd0aEFkanVzdD0ic3BhY2luZyIgdGV4dExlbmd0aD0iMTU2IiB4PSIzMTMuNSIgeT0iMzM4LjM3NSI+c2VsZWN0cyBmaWxlIHRvIGRvd25sb2FkPC90ZXh0PjxsaW5lIHN0eWxlPSJzdHJva2U6IzAwMDAwMDtzdHJva2Utd2lkdGg6MS41OyIgeDE9IjE1IiB4Mj0iMTUiIHkxPSIxMSIgeTI9IjYyMS4yNSIvPjxwb2x5Z29uIGZpbGw9IiNGMUYxRjEiIHBvaW50cz0iNzEwLjUsMTgwLjk1MzEsODI0LjUsMTgwLjk1MzEsODM2LjUsMTkyLjk1MzEsODI0LjUsMjA0Ljk1MzEsNzEwLjUsMjA0Ljk1MzEsNjk4LjUsMTkyLjk1MzEsNzEwLjUsMTgwLjk1MzEiIHN0eWxlPSJzdHJva2U6IzE4MTgxODtzdHJva2Utd2lkdGg6MC41OyIvPjx0ZXh0IGZpbGw9IiMwMDAwMDAiIGZvbnQtZmFtaWx5PSJzYW5zLXNlcmlmIiBmb250LXNpemU9IjExIiBsZW5ndGhBZGp1c3Q9InNwYWNpbmciIHRleHRMZW5ndGg9IjExNCIgeD0iNzEwLjUiIHk9IjE5Ny40NjQ4Ij51cGxvYWQgb3IgZG93bmxvYWQ/PC90ZXh0PjxyZWN0IGZpbGw9IiNGMUYxRjEiIGhlaWdodD0iMzIuODQzOCIgcng9IjEyLjUiIHJ5PSIxMi41IiBzdHlsZT0ic3Ryb2tlOiMxODE4MTg7c3Ryb2tlLXdpZHRoOjAuNTsiIHdpZHRoPSIzNTgiIHg9IjQ4OS41IiB5PSIyMzguNSIvPjx0ZXh0IGZpbGw9IiMwMDAwMDAiIGZvbnQtZmFtaWx5PSJzYW5zLXNlcmlmIiBmb250LXNpemU9IjEyIiBsZW5ndGhBZGp1c3Q9InNwYWNpbmciIHRleHRMZW5ndGg9IjMzOCIgeD0iNDk5LjUiIHk9IjI1OS44NDM4Ij5TeXN0ZW0gcHJvbXB0cyB1c2VyIHRvIHNlbGVjdCBmaWxlIGZyb20gbG9jYWwgZGV2aWNlPC90ZXh0PjxyZWN0IGZpbGw9IiNGMUYxRjEiIGhlaWdodD0iMzIuODQzOCIgcng9IjEyLjUiIHJ5PSIxMi41IiBzdHlsZT0ic3Ryb2tlOiMxODE4MTg7c3Ryb2tlLXdpZHRoOjAuNTsiIHdpZHRoPSIxNTgiIHg9IjU4OS41IiB5PSIzOTUuNTYyNSIvPjx0ZXh0IGZpbGw9IiMwMDAwMDAiIGZvbnQtZmFtaWx5PSJzYW5zLXNlcmlmIiBmb250LXNpemU9IjEyIiBsZW5ndGhBZGp1c3Q9InNwYWNpbmciIHRleHRMZW5ndGg9IjEzOCIgeD0iNTk5LjUiIHk9IjQxNi45MDYzIj5VcGxvYWQgc2VsZWN0ZWQgZmlsZXM8L3RleHQ+PHJlY3QgZmlsbD0iI0YxRjFGMSIgaGVpZ2h0PSI0NS42ODc1IiByeD0iMTIuNSIgcnk9IjEyLjUiIHN0eWxlPSJzdHJva2U6IzE4MTgxODtzdHJva2Utd2lkdGg6MC41OyIgd2lkdGg9IjE3OCIgeD0iODY3LjUiIHk9IjIzOC41Ii8+PHRleHQgZmlsbD0iIzAwMDAwMCIgZm9udC1mYW1pbHk9InNhbnMtc2VyaWYiIGZvbnQtc2l6ZT0iMTIiIGxlbmd0aEFkanVzdD0ic3BhY2luZyIgdGV4dExlbmd0aD0iMTQ2IiB4PSI4NzcuNSIgeT0iMjU5Ljg0MzgiPlN5c3RlbSBwcm9tcHRzIHVzZXIgdG88L3RleHQ+PHRleHQgZmlsbD0iIzAwMDAwMCIgZm9udC1mYW1pbHk9InNhbnMtc2VyaWYiIGZvbnQtc2l6ZT0iMTIiIGxlbmd0aEFkanVzdD0ic3BhY2luZyIgdGV4dExlbmd0aD0iMTQ4IiB4PSI4ODMuNSIgeT0iMjcyLjY4NzUiPnNlbGVjdCBmaWxlIGZyb20gc3lzdGVtPC90ZXh0PjxyZWN0IGZpbGw9IiNGMUYxRjEiIGhlaWdodD0iMzIuODQzOCIgcng9IjEyLjUiIHJ5PSIxMi41IiBzdHlsZT0ic3Ryb2tlOiMxODE4MTg7c3Ryb2tlLXdpZHRoOjAuNTsiIHdpZHRoPSIxNzEiIHg9Ijg3MSIgeT0iMzgyLjcxODgiLz48dGV4dCBmaWxsPSIjMDAwMDAwIiBmb250LWZhbWlseT0ic2Fucy1zZXJpZiIgZm9udC1zaXplPSIxMiIgbGVuZ3RoQWRqdXN0PSJzcGFjaW5nIiB0ZXh0TGVuZ3RoPSIxNTEiIHg9Ijg4MSIgeT0iNDA0LjA2MjUiPkRvd25sb2FkIHNlbGVjdGVkIGZpbGVzPC90ZXh0Pjxwb2x5Z29uIGZpbGw9IiNGMUYxRjEiIHBvaW50cz0iNzY3LjUsNDM4LjQwNjMsNzY3LjUsNDM4LjQwNjMsNzc5LjUsNDUwLjQwNjMsNzY3LjUsNDYyLjQwNjMsNzY3LjUsNDYyLjQwNjMsNzU1LjUsNDUwLjQwNjMsNzY3LjUsNDM4LjQwNjMiIHN0eWxlPSJzdHJva2U6IzE4MTgxODtzdHJva2Utd2lkdGg6MC41OyIvPjxwb2x5Z29uIGZpbGw9IiNGMUYxRjEiIHBvaW50cz0iNjg5LjUsNDgyLjQwNjMsODQ1LjUsNDgyLjQwNjMsODU3LjUsNDk0LjQwNjMsODQ1LjUsNTA2LjQwNjMsNjg5LjUsNTA2LjQwNjMsNjc3LjUsNDk0LjQwNjMsNjg5LjUsNDgyLjQwNjMiIHN0eWxlPSJzdHJva2U6IzE4MTgxODtzdHJva2Utd2lkdGg6MC41OyIvPjx0ZXh0IGZpbGw9IiMwMDAwMDAiIGZvbnQtZmFtaWx5PSJzYW5zLXNlcmlmIiBmb250LXNpemU9IjExIiBsZW5ndGhBZGp1c3Q9InNwYWNpbmciIHRleHRMZW5ndGg9IjE1NiIgeD0iNjg5LjUiIHk9IjQ5OC45MTgiPkZpbGUgb3BlcmF0aW9uIHN1Y2Nlc3NmdWw/PC90ZXh0Pjx0ZXh0IGZpbGw9IiMwMDAwMDAiIGZvbnQtZmFtaWx5PSJzYW5zLXNlcmlmIiBmb250LXNpemU9IjExIiBsZW5ndGhBZGp1c3Q9InNwYWNpbmciIHRleHRMZW5ndGg9IjE4IiB4PSI2NTkuNSIgeT0iNDkzLjAzMTMiPlllczwvdGV4dD48dGV4dCBmaWxsPSIjMDAwMDAwIiBmb250LWZhbWlseT0ic2Fucy1zZXJpZiIgZm9udC1zaXplPSIxMSIgbGVuZ3RoQWRqdXN0PSJzcGFjaW5nIiB0ZXh0TGVuZ3RoPSIxMiIgeD0iODU3LjUiIHk9IjQ5My4wMzEzIj5ObzwvdGV4dD48cmVjdCBmaWxsPSIjRjFGMUYxIiBoZWlnaHQ9IjMyLjg0MzgiIHJ4PSIxMi41IiByeT0iMTIuNSIgc3R5bGU9InN0cm9rZTojMTgxODE4O3N0cm9rZS13aWR0aDowLjU7IiB3aWR0aD0iMjI3IiB4PSI1MzMuNSIgeT0iNTE2LjQwNjMiLz48dGV4dCBmaWxsPSIjMDAwMDAwIiBmb250LWZhbWlseT0ic2Fucy1zZXJpZiIgZm9udC1zaXplPSIxMiIgbGVuZ3RoQWRqdXN0PSJzcGFjaW5nIiB0ZXh0TGVuZ3RoPSIyMDciIHg9IjU0My41IiB5PSI1MzcuNzUiPlN5c3RlbSBkaXNwbGF5cyBzdWNjZXNzIG1lc3NhZ2U8L3RleHQ+PHJlY3QgZmlsbD0iI0YxRjFGMSIgaGVpZ2h0PSIzMi44NDM4IiByeD0iMTIuNSIgcnk9IjEyLjUiIHN0eWxlPSJzdHJva2U6IzE4MTgxODtzdHJva2Utd2lkdGg6MC41OyIgd2lkdGg9IjIxNSIgeD0iNzgwLjUiIHk9IjUxNi40MDYzIi8+PHRleHQgZmlsbD0iIzAwMDAwMCIgZm9udC1mYW1pbHk9InNhbnMtc2VyaWYiIGZvbnQtc2l6ZT0iMTIiIGxlbmd0aEFkanVzdD0ic3BhY2luZyIgdGV4dExlbmd0aD0iMTk1IiB4PSI3OTAuNSIgeT0iNTM3Ljc1Ij5TeXN0ZW0gZGlzcGxheXMgZXJyb3IgbWVzc2FnZTwvdGV4dD48cG9seWdvbiBmaWxsPSIjRjFGMUYxIiBwb2ludHM9Ijc2Ny41LDU1NS4yNSw3NzkuNSw1NjcuMjUsNzY3LjUsNTc5LjI1LDc1NS41LDU2Ny4yNSw3NjcuNSw1NTUuMjUiIHN0eWxlPSJzdHJva2U6IzE4MTgxODtzdHJva2Utd2lkdGg6MC41OyIvPjxlbGxpcHNlIGN4PSI3NjcuNSIgY3k9IjYxMC4yNSIgZmlsbD0ibm9uZSIgcng9IjExIiByeT0iMTEiIHN0eWxlPSJzdHJva2U6IzIyMjIyMjtzdHJva2Utd2lkdGg6MS4wOyIvPjxlbGxpcHNlIGN4PSI3NjcuNSIgY3k9IjYxMC4yNSIgZmlsbD0iIzIyMjIyMiIgcng9IjYiIHJ5PSI2IiBzdHlsZT0ic3Ryb2tlOiMxMTExMTE7c3Ryb2tlLXdpZHRoOjEuMDsiLz48bGluZSBzdHlsZT0ic3Ryb2tlOiMwMDAwMDA7c3Ryb2tlLXdpZHRoOjEuNTsiIHgxPSI0ODMuNSIgeDI9IjQ4My41IiB5MT0iMTEiIHkyPSI2MjEuMjUiLz48bGluZSBzdHlsZT0ic3Ryb2tlOiMwMDAwMDA7c3Ryb2tlLXdpZHRoOjEuNTsiIHgxPSIxMDQ5LjUiIHgyPSIxMDQ5LjUiIHkxPSIxMSIgeTI9IjYyMS4yNSIvPjxsaW5lIHN0eWxlPSJzdHJva2U6IzE4MTgxODtzdHJva2Utd2lkdGg6MS4wOyIgeDE9IjIwMi41IiB4Mj0iMjAyLjUiIHkxPSI1NS4yNjU2IiB5Mj0iNzUuMjY1NiIvPjxwb2x5Z29uIGZpbGw9IiMxODE4MTgiIHBvaW50cz0iMTk4LjUsNjUuMjY1NiwyMDIuNSw3NS4yNjU2LDIwNi41LDY1LjI2NTYsMjAyLjUsNjkuMjY1NiIgc3R5bGU9InN0cm9rZTojMTgxODE4O3N0cm9rZS13aWR0aDoxLjA7Ii8+PGxpbmUgc3R5bGU9InN0cm9rZTojMTgxODE4O3N0cm9rZS13aWR0aDoxLjA7IiB4MT0iMjAyLjUiIHgyPSIyMDIuNSIgeTE9IjEwOC4xMDk0IiB5Mj0iMTI4LjEwOTQiLz48cG9seWdvbiBmaWxsPSIjMTgxODE4IiBwb2ludHM9IjE5OC41LDExOC4xMDk0LDIwMi41LDEyOC4xMDk0LDIwNi41LDExOC4xMDk0LDIwMi41LDEyMi4xMDk0IiBzdHlsZT0ic3Ryb2tlOiMxODE4MTg7c3Ryb2tlLXdpZHRoOjEuMDsiLz48bGluZSBzdHlsZT0ic3Ryb2tlOiMxODE4MTg7c3Ryb2tlLXdpZHRoOjEuMDsiIHgxPSI2OTguNSIgeDI9IjY2OC41IiB5MT0iMTkyLjk1MzEiIHkyPSIxOTIuOTUzMSIvPjxsaW5lIHN0eWxlPSJzdHJva2U6IzE4MTgxODtzdHJva2Utd2lkdGg6MS4wOyIgeDE9IjY2OC41IiB4Mj0iNjY4LjUiIHkxPSIxOTIuOTUzMSIgeTI9IjIzOC41Ii8+PHBvbHlnb24gZmlsbD0iIzE4MTgxOCIgcG9pbnRzPSI2NjQuNSwyMjguNSw2NjguNSwyMzguNSw2NzIuNSwyMjguNSw2NjguNSwyMzIuNSIgc3R5bGU9InN0cm9rZTojMTgxODE4O3N0cm9rZS13aWR0aDoxLjA7Ii8+PHRleHQgZmlsbD0iIzAwMDAwMCIgZm9udC1mYW1pbHk9InNhbnMtc2VyaWYiIGZvbnQtc2l6ZT0iMTEiIGxlbmd0aEFkanVzdD0ic3BhY2luZyIgdGV4dExlbmd0aD0iNzIiIHg9IjY2OC41IiB5PSIyMjAuMjM4MyI+VXBsb2FkIGZpbGVzPC90ZXh0PjxsaW5lIHN0eWxlPSJzdHJva2U6IzE4MTgxODtzdHJva2Utd2lkdGg6MS4wOyIgeDE9IjgzNi41IiB4Mj0iOTU2LjUiIHkxPSIxOTIuOTUzMSIgeTI9IjE5Mi45NTMxIi8+PGxpbmUgc3R5bGU9InN0cm9rZTojMTgxODE4O3N0cm9rZS13aWR0aDoxLjA7IiB4MT0iOTU2LjUiIHgyPSI5NTYuNSIgeTE9IjE5Mi45NTMxIiB5Mj0iMjM4LjUiLz48cG9seWdvbiBmaWxsPSIjMTgxODE4IiBwb2ludHM9Ijk1Mi41LDIyOC41LDk1Ni41LDIzOC41LDk2MC41LDIyOC41LDk1Ni41LDIzMi41IiBzdHlsZT0ic3Ryb2tlOiMxODE4MTg7c3Ryb2tlLXdpZHRoOjEuMDsiLz48dGV4dCBmaWxsPSIjMDAwMDAwIiBmb250LWZhbWlseT0ic2Fucy1zZXJpZiIgZm9udC1zaXplPSIxMSIgbGVuZ3RoQWRqdXN0PSJzcGFjaW5nIiB0ZXh0TGVuZ3RoPSI4NCIgeD0iOTU2LjUiIHk9IjIyMC4yMzgzIj5Eb3dubG9hZCBmaWxlczwvdGV4dD48bGluZSBzdHlsZT0ic3Ryb2tlOiMxODE4MTg7c3Ryb2tlLXdpZHRoOjEuMDsiIHgxPSI2NjguNSIgeDI9IjY2OC41IiB5MT0iNDI4LjQwNjMiIHkyPSI0NTAuNDA2MyIvPjxsaW5lIHN0eWxlPSJzdHJva2U6IzE4MTgxODtzdHJva2Utd2lkdGg6MS4wOyIgeDE9IjY2OC41IiB4Mj0iNzU1LjUiIHkxPSI0NTAuNDA2MyIgeTI9IjQ1MC40MDYzIi8+PHBvbHlnb24gZmlsbD0iIzE4MTgxOCIgcG9pbnRzPSI3NDUuNSw0NDYuNDA2Myw3NTUuNSw0NTAuNDA2Myw3NDUuNSw0NTQuNDA2Myw3NDkuNSw0NTAuNDA2MyIgc3R5bGU9InN0cm9rZTojMTgxODE4O3N0cm9rZS13aWR0aDoxLjA7Ii8+PGxpbmUgc3R5bGU9InN0cm9rZTojMTgxODE4O3N0cm9rZS13aWR0aDoxLjA7IiB4MT0iOTU2LjUiIHgyPSI5NTYuNSIgeTE9IjQxNS41NjI1IiB5Mj0iNDUwLjQwNjMiLz48bGluZSBzdHlsZT0ic3Ryb2tlOiMxODE4MTg7c3Ryb2tlLXdpZHRoOjEuMDsiIHgxPSI5NTYuNSIgeDI9Ijc3OS41IiB5MT0iNDUwLjQwNjMiIHkyPSI0NTAuNDA2MyIvPjxwb2x5Z29uIGZpbGw9IiMxODE4MTgiIHBvaW50cz0iNzg5LjUsNDQ2LjQwNjMsNzc5LjUsNDUwLjQwNjMsNzg5LjUsNDU0LjQwNjMsNzg1LjUsNDUwLjQwNjMiIHN0eWxlPSJzdHJva2U6IzE4MTgxODtzdHJva2Utd2lkdGg6MS4wOyIvPjxsaW5lIHN0eWxlPSJzdHJva2U6IzE4MTgxODtzdHJva2Utd2lkdGg6MS4wOyIgeDE9IjY3Ny41IiB4Mj0iNjQ3IiB5MT0iNDk0LjQwNjMiIHkyPSI0OTQuNDA2MyIvPjxsaW5lIHN0eWxlPSJzdHJva2U6IzE4MTgxODtzdHJva2Utd2lkdGg6MS4wOyIgeDE9IjY0NyIgeDI9IjY0NyIgeTE9IjQ5NC40MDYzIiB5Mj0iNTE2LjQwNjMiLz48cG9seWdvbiBmaWxsPSIjMTgxODE4IiBwb2ludHM9IjY0Myw1MDYuNDA2Myw2NDcsNTE2LjQwNjMsNjUxLDUwNi40MDYzLDY0Nyw1MTAuNDA2MyIgc3R5bGU9InN0cm9rZTojMTgxODE4O3N0cm9rZS13aWR0aDoxLjA7Ii8+PGxpbmUgc3R5bGU9InN0cm9rZTojMTgxODE4O3N0cm9rZS13aWR0aDoxLjA7IiB4MT0iODU3LjUiIHgyPSI4ODgiIHkxPSI0OTQuNDA2MyIgeTI9IjQ5NC40MDYzIi8+PGxpbmUgc3R5bGU9InN0cm9rZTojMTgxODE4O3N0cm9rZS13aWR0aDoxLjA7IiB4MT0iODg4IiB4Mj0iODg4IiB5MT0iNDk0LjQwNjMiIHkyPSI1MTYuNDA2MyIvPjxwb2x5Z29uIGZpbGw9IiMxODE4MTgiIHBvaW50cz0iODg0LDUwNi40MDYzLDg4OCw1MTYuNDA2Myw4OTIsNTA2LjQwNjMsODg4LDUxMC40MDYzIiBzdHlsZT0ic3Ryb2tlOiMxODE4MTg7c3Ryb2tlLXdpZHRoOjEuMDsiLz48bGluZSBzdHlsZT0ic3Ryb2tlOiMxODE4MTg7c3Ryb2tlLXdpZHRoOjEuMDsiIHgxPSI2NDciIHgyPSI2NDciIHkxPSI1NDkuMjUiIHkyPSI1NjcuMjUiLz48bGluZSBzdHlsZT0ic3Ryb2tlOiMxODE4MTg7c3Ryb2tlLXdpZHRoOjEuMDsiIHgxPSI2NDciIHgyPSI3NTUuNSIgeTE9IjU2Ny4yNSIgeTI9IjU2Ny4yNSIvPjxwb2x5Z29uIGZpbGw9IiMxODE4MTgiIHBvaW50cz0iNzQ1LjUsNTYzLjI1LDc1NS41LDU2Ny4yNSw3NDUuNSw1NzEuMjUsNzQ5LjUsNTY3LjI1IiBzdHlsZT0ic3Ryb2tlOiMxODE4MTg7c3Ryb2tlLXdpZHRoOjEuMDsiLz48bGluZSBzdHlsZT0ic3Ryb2tlOiMxODE4MTg7c3Ryb2tlLXdpZHRoOjEuMDsiIHgxPSI4ODgiIHgyPSI4ODgiIHkxPSI1NDkuMjUiIHkyPSI1NjcuMjUiLz48bGluZSBzdHlsZT0ic3Ryb2tlOiMxODE4MTg7c3Ryb2tlLXdpZHRoOjEuMDsiIHgxPSI4ODgiIHgyPSI3NzkuNSIgeTE9IjU2Ny4yNSIgeTI9IjU2Ny4yNSIvPjxwb2x5Z29uIGZpbGw9IiMxODE4MTgiIHBvaW50cz0iNzg5LjUsNTYzLjI1LDc3OS41LDU2Ny4yNSw3ODkuNSw1NzEuMjUsNzg1LjUsNTY3LjI1IiBzdHlsZT0ic3Ryb2tlOiMxODE4MTg7c3Ryb2tlLXdpZHRoOjEuMDsiLz48bGluZSBzdHlsZT0ic3Ryb2tlOiMxODE4MTg7c3Ryb2tlLXdpZHRoOjEuMDsiIHgxPSI3NjcuNSIgeDI9Ijc2Ny41IiB5MT0iNDYyLjQwNjMiIHkyPSI0ODIuNDA2MyIvPjxwb2x5Z29uIGZpbGw9IiMxODE4MTgiIHBvaW50cz0iNzYzLjUsNDcyLjQwNjMsNzY3LjUsNDgyLjQwNjMsNzcxLjUsNDcyLjQwNjMsNzY3LjUsNDc2LjQwNjMiIHN0eWxlPSJzdHJva2U6IzE4MTgxODtzdHJva2Utd2lkdGg6MS4wOyIvPjxsaW5lIHN0eWxlPSJzdHJva2U6IzE4MTgxODtzdHJva2Utd2lkdGg6MS4wOyIgeDE9Ijc2Ny41IiB4Mj0iNzY3LjUiIHkxPSI1NzkuMjUiIHkyPSI1OTkuMjUiLz48cG9seWdvbiBmaWxsPSIjMTgxODE4IiBwb2ludHM9Ijc2My41LDU4OS4yNSw3NjcuNSw1OTkuMjUsNzcxLjUsNTg5LjI1LDc2Ny41LDU5My4yNSIgc3R5bGU9InN0cm9rZTojMTgxODE4O3N0cm9rZS13aWR0aDoxLjA7Ii8+PGxpbmUgc3R5bGU9InN0cm9rZTojMTgxODE4O3N0cm9rZS13aWR0aDoxLjA7IiB4MT0iNjY4LjUiIHgyPSI2NjguNSIgeTE9IjI3MS4zNDM4IiB5Mj0iMjg4Ljg0MzgiLz48bGluZSBzdHlsZT0ic3Ryb2tlOiMxODE4MTg7c3Ryb2tlLXdpZHRoOjEuMDsiIHgxPSI2NjguNSIgeDI9IjEwMy41IiB5MT0iMjg4Ljg0MzgiIHkyPSIyODguODQzOCIvPjxsaW5lIHN0eWxlPSJzdHJva2U6IzE4MTgxODtzdHJva2Utd2lkdGg6MS4wOyIgeDE9IjEwMy41IiB4Mj0iMTAzLjUiIHkxPSIyODguODQzOCIgeTI9IjMwNC4xODc1Ii8+PHBvbHlnb24gZmlsbD0iIzE4MTgxOCIgcG9pbnRzPSI5OS41LDI5NC4xODc1LDEwMy41LDMwNC4xODc1LDEwNy41LDI5NC4xODc1LDEwMy41LDI5OC4xODc1IiBzdHlsZT0ic3Ryb2tlOiMxODE4MTg7c3Ryb2tlLXdpZHRoOjEuMDsiLz48bGluZSBzdHlsZT0ic3Ryb2tlOiMxODE4MTg7c3Ryb2tlLXdpZHRoOjEuMDsiIHgxPSIxMDMuNSIgeDI9IjEwMy41IiB5MT0iMzYyLjcxODgiIHkyPSIzNzguMDYyNSIvPjxsaW5lIHN0eWxlPSJzdHJva2U6IzE4MTgxODtzdHJva2Utd2lkdGg6MS4wOyIgeDE9IjEwMy41IiB4Mj0iNjY4LjUiIHkxPSIzNzguMDYyNSIgeTI9IjM3OC4wNjI1Ii8+PGxpbmUgc3R5bGU9InN0cm9rZTojMTgxODE4O3N0cm9rZS13aWR0aDoxLjA7IiB4MT0iNjY4LjUiIHgyPSI2NjguNSIgeTE9IjM3OC4wNjI1IiB5Mj0iMzk1LjU2MjUiLz48cG9seWdvbiBmaWxsPSIjMTgxODE4IiBwb2ludHM9IjY2NC41LDM4NS41NjI1LDY2OC41LDM5NS41NjI1LDY3Mi41LDM4NS41NjI1LDY2OC41LDM4OS41NjI1IiBzdHlsZT0ic3Ryb2tlOiMxODE4MTg7c3Ryb2tlLXdpZHRoOjEuMDsiLz48bGluZSBzdHlsZT0ic3Ryb2tlOiMxODE4MTg7c3Ryb2tlLXdpZHRoOjEuMDsiIHgxPSI5NTYuNSIgeDI9Ijk1Ni41IiB5MT0iMjg0LjE4NzUiIHkyPSIyOTkuNTMxMyIvPjxsaW5lIHN0eWxlPSJzdHJva2U6IzE4MTgxODtzdHJva2Utd2lkdGg6MS4wOyIgeDE9Ijk1Ni41IiB4Mj0iMzkxLjUiIHkxPSIyOTkuNTMxMyIgeTI9IjI5OS41MzEzIi8+PGxpbmUgc3R5bGU9InN0cm9rZTojMTgxODE4O3N0cm9rZS13aWR0aDoxLjA7IiB4MT0iMzkxLjUiIHgyPSIzOTEuNSIgeTE9IjI5OS41MzEzIiB5Mj0iMzE3LjAzMTMiLz48cG9seWdvbiBmaWxsPSIjMTgxODE4IiBwb2ludHM9IjM4Ny41LDMwNy4wMzEzLDM5MS41LDMxNy4wMzEzLDM5NS41LDMwNy4wMzEzLDM5MS41LDMxMS4wMzEzIiBzdHlsZT0ic3Ryb2tlOiMxODE4MTg7c3Ryb2tlLXdpZHRoOjEuMDsiLz48bGluZSBzdHlsZT0ic3Ryb2tlOiMxODE4MTg7c3Ryb2tlLXdpZHRoOjEuMDsiIHgxPSIzOTEuNSIgeDI9IjM5MS41IiB5MT0iMzQ5Ljg3NSIgeTI9IjM2Ny4zNzUiLz48bGluZSBzdHlsZT0ic3Ryb2tlOiMxODE4MTg7c3Ryb2tlLXdpZHRoOjEuMDsiIHgxPSIzOTEuNSIgeDI9Ijk1Ni41IiB5MT0iMzY3LjM3NSIgeTI9IjM2Ny4zNzUiLz48bGluZSBzdHlsZT0ic3Ryb2tlOiMxODE4MTg7c3Ryb2tlLXdpZHRoOjEuMDsiIHgxPSI5NTYuNSIgeDI9Ijk1Ni41IiB5MT0iMzY3LjM3NSIgeTI9IjM4Mi43MTg4Ii8+PHBvbHlnb24gZmlsbD0iIzE4MTgxOCIgcG9pbnRzPSI5NTIuNSwzNzIuNzE4OCw5NTYuNSwzODIuNzE4OCw5NjAuNSwzNzIuNzE4OCw5NTYuNSwzNzYuNzE4OCIgc3R5bGU9InN0cm9rZTojMTgxODE4O3N0cm9rZS13aWR0aDoxLjA7Ii8+PGxpbmUgc3R5bGU9InN0cm9rZTojMTgxODE4O3N0cm9rZS13aWR0aDoxLjA7IiB4MT0iMjAyLjUiIHgyPSIyMDIuNSIgeTE9IjE2MC45NTMxIiB5Mj0iMTY1Ljk1MzEiLz48bGluZSBzdHlsZT0ic3Ryb2tlOiMxODE4MTg7c3Ryb2tlLXdpZHRoOjEuMDsiIHgxPSIyMDIuNSIgeDI9Ijc2Ny41IiB5MT0iMTY1Ljk1MzEiIHkyPSIxNjUuOTUzMSIvPjxsaW5lIHN0eWxlPSJzdHJva2U6IzE4MTgxODtzdHJva2Utd2lkdGg6MS4wOyIgeDE9Ijc2Ny41IiB4Mj0iNzY3LjUiIHkxPSIxNjUuOTUzMSIgeTI9IjE4MC45NTMxIi8+PHBvbHlnb24gZmlsbD0iIzE4MTgxOCIgcG9pbnRzPSI3NjMuNSwxNzAuOTUzMSw3NjcuNSwxODAuOTUzMSw3NzEuNSwxNzAuOTUzMSw3NjcuNSwxNzQuOTUzMSIgc3R5bGU9InN0cm9rZTojMTgxODE4O3N0cm9rZS13aWR0aDoxLjA7Ii8+PHRleHQgZmlsbD0iIzAwMDAwMCIgZm9udC1mYW1pbHk9InNhbnMtc2VyaWYiIGZvbnQtc2l6ZT0iMTgiIGxlbmd0aEFkanVzdD0ic3BhY2luZyIgdGV4dExlbmd0aD0iMTE3IiB4PSIxOTAuNzUiIHk9IjI4LjAxNTYiPkFkbWluaXN0cmF0b3I8L3RleHQ+PHRleHQgZmlsbD0iIzAwMDAwMCIgZm9udC1mYW1pbHk9InNhbnMtc2VyaWYiIGZvbnQtc2l6ZT0iMTgiIGxlbmd0aEFkanVzdD0ic3BhY2luZyIgdGV4dExlbmd0aD0iNTQiIHg9IjczOS41IiB5PSIyOC4wMTU2Ij5TeXN0ZW08L3RleHQ+PCEtLVNSQz1bWlBBX0ppR20zQ1J0RmVON3pYTWttbWE5Q1I4VzFZSU1hQlh0NFZjZEVFNXFLWHlVZnNjQk1ZZjFYb1hFXzd0LUVVeHVlQW5zY2I4S29TVW5lSUhZUWlSVHdNYUpXXzROMGtzSVhteVhGejRmZTNpYmpGclZHZEc5dW9uTE5jUkIxczI1NG5VU2pnbERveEhYZDlqRXlqaGNPQm5HbTB4QXRycFBkeGo2MmlCc2pUdUNzWTFyM1YydFFham1nVzY0dzZyODE5YW0wWFNkRDJaSjk4RTF4eFdiQUdtZV9EOEktIC1ncFFzTW9ncGdnR2RYdG5PbE5valMzNzEzQ1g1TTlDc2ZWd0hfZFJYUi1WeDZOV2hfdWJ2U3gxRHpZSnN6Vnd2UnlSU3NMUUNfQkt3eDNRRkcweExDbnlXNnZYRlFDYXdMNGVZNlJTbVZmWVd4UWpwZ0ZmR2NiQUhYbmZvS0xCMnl5VFpPc1hEMC0gLXlEaVo5NjdfZkZoYjF4dTdfTlg2bTAwXS0tPjwvZz48L3N2Zz4=;" vertex="1" parent="1">
            <mxGeometry x="-110" y="-890" width="1071" height="633" as="geometry" />
          </mxCell>
        </UserObject>
        <UserObject label="" plantUmlData="{&quot;data&quot;:&quot;@startuml\n\n|Club Officer, Club President|\nstart\n:Enter Notification System Interface;\n:Select Management System to Edit Notification;\nswitch(action?)\ncase(Add)\n  :Add notification;\n  if (Required fields filled?) then (Yes)\n      :Publish notification;\n      :      Display notification  \\n release status information;\n  else (No)\n    :Display error message \\n and request re-filling;\n  endif\ncase(Edit)\n  :Modify the published notification;\n  if (Notification information \\n  meets requirements?) then (Yes)\n    :Publish notification;\n    :Display notification release \\n      status information;\n  else (No)\n    :Display error message  \\n and request correction;\n  endif\ncase(Delete)\n  :Delete the published notification;\n  :      Display notification  \\n deletion status information;\ncase(Search)\n  :Search for the published notification;\n  :Display search results;\n  :User views search results;\n\nendswitch\n\nstop\n\n@enduml&quot;,&quot;format&quot;:&quot;svg&quot;}" id="c8ZHbjYaLbXA3wWcWkqa-5">
          <mxCell style="shape=image;noLabel=1;verticalAlign=top;aspect=fixed;imageAspect=0;image=data:image/svg+xml,PD94bWwgdmVyc2lvbj0iMS4wIiBlbmNvZGluZz0idXMtYXNjaWkiIHN0YW5kYWxvbmU9Im5vIj8+PHN2ZyB4bWxucz0iaHR0cDovL3d3dy53My5vcmcvMjAwMC9zdmciIHhtbG5zOnhsaW5rPSJodHRwOi8vd3d3LnczLm9yZy8xOTk5L3hsaW5rIiBjb250ZW50U3R5bGVUeXBlPSJ0ZXh0L2NzcyIgaGVpZ2h0PSI1MzBweCIgcHJlc2VydmVBc3BlY3RSYXRpbz0ibm9uZSIgc3R5bGU9IndpZHRoOjEzNTNweDtoZWlnaHQ6NTMwcHg7YmFja2dyb3VuZDojRkZGRkZGOyIgdmVyc2lvbj0iMS4xIiB2aWV3Qm94PSIwIDAgMTM1MyA1MzAiIHdpZHRoPSIxMzUzcHgiIHpvb21BbmRQYW49Im1hZ25pZnkiPjxkZWZzLz48Zz48ZWxsaXBzZSBjeD0iNjY3IiBjeT0iMjAiIGZpbGw9IiMyMjIyMjIiIHJ4PSIxMCIgcnk9IjEwIiBzdHlsZT0ic3Ryb2tlOiMyMjIyMjI7c3Ryb2tlLXdpZHRoOjEuMDsiLz48cmVjdCBmaWxsPSIjRjFGMUYxIiBoZWlnaHQ9IjMyLjg0MzgiIHJ4PSIxMi41IiByeT0iMTIuNSIgc3R5bGU9InN0cm9rZTojMTgxODE4O3N0cm9rZS13aWR0aDowLjU7IiB3aWR0aD0iMjQ3IiB4PSI1NDMuNSIgeT0iNTAiLz48dGV4dCBmaWxsPSIjMDAwMDAwIiBmb250LWZhbWlseT0ic2Fucy1zZXJpZiIgZm9udC1zaXplPSIxMiIgbGVuZ3RoQWRqdXN0PSJzcGFjaW5nIiB0ZXh0TGVuZ3RoPSIyMjciIHg9IjU1My41IiB5PSI3MS4zNDM4Ij5FbnRlciBOb3RpZmljYXRpb24gU3lzdGVtIEludGVyZmFjZTwvdGV4dD48cmVjdCBmaWxsPSIjRjFGMUYxIiBoZWlnaHQ9IjMyLjg0MzgiIHJ4PSIxMi41IiByeT0iMTIuNSIgc3R5bGU9InN0cm9rZTojMTgxODE4O3N0cm9rZS13aWR0aDowLjU7IiB3aWR0aD0iMzEyIiB4PSI1MTEiIHk9IjEwMi44NDM4Ii8+PHRleHQgZmlsbD0iIzAwMDAwMCIgZm9udC1mYW1pbHk9InNhbnMtc2VyaWYiIGZvbnQtc2l6ZT0iMTIiIGxlbmd0aEFkanVzdD0ic3BhY2luZyIgdGV4dExlbmd0aD0iMjkyIiB4PSI1MjEiIHk9IjEyNC4xODc1Ij5TZWxlY3QgTWFuYWdlbWVudCBTeXN0ZW0gdG8gRWRpdCBOb3RpZmljYXRpb248L3RleHQ+PHBvbHlnb24gZmlsbD0iI0YxRjFGMSIgcG9pbnRzPSI2NDYsMTU1LjY4NzUsNjg4LDE1NS42ODc1LDcwMCwxNjcuNjg3NSw2ODgsMTc5LjY4NzUsNjQ2LDE3OS42ODc1LDYzNCwxNjcuNjg3NSw2NDYsMTU1LjY4NzUiIHN0eWxlPSJzdHJva2U6IzE4MTgxODtzdHJva2Utd2lkdGg6MC41OyIvPjx0ZXh0IGZpbGw9IiMwMDAwMDAiIGZvbnQtZmFtaWx5PSJzYW5zLXNlcmlmIiBmb250LXNpemU9IjExIiBsZW5ndGhBZGp1c3Q9InNwYWNpbmciIHRleHRMZW5ndGg9IjQyIiB4PSI2NDYiIHk9IjE3Mi4xOTkyIj5hY3Rpb24/PC90ZXh0PjxyZWN0IGZpbGw9IiNGMUYxRjEiIGhlaWdodD0iMzIuODQzOCIgcng9IjEyLjUiIHJ5PSIxMi41IiBzdHlsZT0ic3Ryb2tlOiMxODE4MTg7c3Ryb2tlLXdpZHRoOjAuNTsiIHdpZHRoPSIxMjQiIHg9IjE1MC4yNSIgeT0iMjEzLjIzNDQiLz48dGV4dCBmaWxsPSIjMDAwMDAwIiBmb250LWZhbWlseT0ic2Fucy1zZXJpZiIgZm9udC1zaXplPSIxMiIgbGVuZ3RoQWRqdXN0PSJzcGFjaW5nIiB0ZXh0TGVuZ3RoPSIxMDQiIHg9IjE2MC4yNSIgeT0iMjM0LjU3ODEiPkFkZCBub3RpZmljYXRpb248L3RleHQ+PHBvbHlnb24gZmlsbD0iI0YxRjFGMSIgcG9pbnRzPSIxNDMuMjUsMjY2LjA3ODEsMjgxLjI1LDI2Ni4wNzgxLDI5My4yNSwyNzguMDc4MSwyODEuMjUsMjkwLjA3ODEsMTQzLjI1LDI5MC4wNzgxLDEzMS4yNSwyNzguMDc4MSwxNDMuMjUsMjY2LjA3ODEiIHN0eWxlPSJzdHJva2U6IzE4MTgxODtzdHJva2Utd2lkdGg6MC41OyIvPjx0ZXh0IGZpbGw9IiMwMDAwMDAiIGZvbnQtZmFtaWx5PSJzYW5zLXNlcmlmIiBmb250LXNpemU9IjExIiBsZW5ndGhBZGp1c3Q9InNwYWNpbmciIHRleHRMZW5ndGg9IjEzOCIgeD0iMTQzLjI1IiB5PSIyODIuNTg5OCI+UmVxdWlyZWQgZmllbGRzIGZpbGxlZD88L3RleHQ+PHRleHQgZmlsbD0iIzAwMDAwMCIgZm9udC1mYW1pbHk9InNhbnMtc2VyaWYiIGZvbnQtc2l6ZT0iMTEiIGxlbmd0aEFkanVzdD0ic3BhY2luZyIgdGV4dExlbmd0aD0iMTgiIHg9IjExMy4yNSIgeT0iMjc2LjcwMzEiPlllczwvdGV4dD48dGV4dCBmaWxsPSIjMDAwMDAwIiBmb250LWZhbWlseT0ic2Fucy1zZXJpZiIgZm9udC1zaXplPSIxMSIgbGVuZ3RoQWRqdXN0PSJzcGFjaW5nIiB0ZXh0TGVuZ3RoPSIxMiIgeD0iMjkzLjI1IiB5PSIyNzYuNzAzMSI+Tm88L3RleHQ+PHJlY3QgZmlsbD0iI0YxRjFGMSIgaGVpZ2h0PSIzMi44NDM4IiByeD0iMTIuNSIgcnk9IjEyLjUiIHN0eWxlPSJzdHJva2U6IzE4MTgxODtzdHJva2Utd2lkdGg6MC41OyIgd2lkdGg9IjE1MCIgeD0iMzUiIHk9IjMwMC4wNzgxIi8+PHRleHQgZmlsbD0iIzAwMDAwMCIgZm9udC1mYW1pbHk9InNhbnMtc2VyaWYiIGZvbnQtc2l6ZT0iMTIiIGxlbmd0aEFkanVzdD0ic3BhY2luZyIgdGV4dExlbmd0aD0iMTMwIiB4PSI0NSIgeT0iMzIxLjQyMTkiPlB1Ymxpc2ggbm90aWZpY2F0aW9uPC90ZXh0PjxyZWN0IGZpbGw9IiNGMUYxRjEiIGhlaWdodD0iNDUuNjg3NSIgcng9IjEyLjUiIHJ5PSIxMi41IiBzdHlsZT0ic3Ryb2tlOiMxODE4MTg7c3Ryb2tlLXdpZHRoOjAuNTsiIHdpZHRoPSIxOTgiIHg9IjExIiB5PSIzNjcuOTIxOSIvPjx0ZXh0IGZpbGw9IiMwMDAwMDAiIGZvbnQtZmFtaWx5PSJzYW5zLXNlcmlmIiBmb250LXNpemU9IjEyIiBsZW5ndGhBZGp1c3Q9InNwYWNpbmciIHRleHRMZW5ndGg9IjEzMCIgeD0iNTciIHk9IjM4OS4yNjU2Ij5EaXNwbGF5IG5vdGlmaWNhdGlvbjwvdGV4dD48dGV4dCBmaWxsPSIjMDAwMDAwIiBmb250LWZhbWlseT0ic2Fucy1zZXJpZiIgZm9udC1zaXplPSIxMiIgbGVuZ3RoQWRqdXN0PSJzcGFjaW5nIiB0ZXh0TGVuZ3RoPSIxNzIiIHg9IjI3IiB5PSI0MDIuMTA5NCI+cmVsZWFzZSBzdGF0dXMgaW5mb3JtYXRpb248L3RleHQ+PHJlY3QgZmlsbD0iI0YxRjFGMSIgaGVpZ2h0PSI0NS42ODc1IiByeD0iMTIuNSIgcnk9IjEyLjUiIHN0eWxlPSJzdHJva2U6IzE4MTgxODtzdHJva2Utd2lkdGg6MC41OyIgd2lkdGg9IjE3MSIgeD0iMjI5IiB5PSIzMDAuMDc4MSIvPjx0ZXh0IGZpbGw9IiMwMDAwMDAiIGZvbnQtZmFtaWx5PSJzYW5zLXNlcmlmIiBmb250LXNpemU9IjEyIiBsZW5ndGhBZGp1c3Q9InNwYWNpbmciIHRleHRMZW5ndGg9IjE0MiIgeD0iMjM5IiB5PSIzMjEuNDIxOSI+RGlzcGxheSBlcnJvciBtZXNzYWdlPC90ZXh0Pjx0ZXh0IGZpbGw9IiMwMDAwMDAiIGZvbnQtZmFtaWx5PSJzYW5zLXNlcmlmIiBmb250LXNpemU9IjEyIiBsZW5ndGhBZGp1c3Q9InNwYWNpbmciIHRleHRMZW5ndGg9IjE0NSIgeD0iMjQ1IiB5PSIzMzQuMjY1NiI+YW5kIHJlcXVlc3QgcmUtZmlsbGluZzwvdGV4dD48cG9seWdvbiBmaWxsPSIjRjFGMUYxIiBwb2ludHM9IjIxMi4yNSw0MTkuNjA5NCwyMjQuMjUsNDMxLjYwOTQsMjEyLjI1LDQ0My42MDk0LDIwMC4yNSw0MzEuNjA5NCwyMTIuMjUsNDE5LjYwOTQiIHN0eWxlPSJzdHJva2U6IzE4MTgxODtzdHJva2Utd2lkdGg6MC41OyIvPjxyZWN0IGZpbGw9IiNGMUYxRjEiIGhlaWdodD0iMzIuODQzOCIgcng9IjEyLjUiIHJ5PSIxMi41IiBzdHlsZT0ic3Ryb2tlOiMxODE4MTg7c3Ryb2tlLXdpZHRoOjAuNTsiIHdpZHRoPSIyMzYiIHg9IjUwMyIgeT0iMjEzLjIzNDQiLz48dGV4dCBmaWxsPSIjMDAwMDAwIiBmb250LWZhbWlseT0ic2Fucy1zZXJpZiIgZm9udC1zaXplPSIxMiIgbGVuZ3RoQWRqdXN0PSJzcGFjaW5nIiB0ZXh0TGVuZ3RoPSIyMTYiIHg9IjUxMyIgeT0iMjM0LjU3ODEiPk1vZGlmeSB0aGUgcHVibGlzaGVkIG5vdGlmaWNhdGlvbjwvdGV4dD48cG9seWdvbiBmaWxsPSIjRjFGMUYxIiBwb2ludHM9IjU0NiwyNjYuMDc4MSw2OTYsMjY2LjA3ODEsNzA4LDI3OC4wNzgxLDY5NiwyOTAuMDc4MSw1NDYsMjkwLjA3ODEsNTM0LDI3OC4wNzgxLDU0NiwyNjYuMDc4MSIgc3R5bGU9InN0cm9rZTojMTgxODE4O3N0cm9rZS13aWR0aDowLjU7Ii8+PHRleHQgZmlsbD0iIzAwMDAwMCIgZm9udC1mYW1pbHk9InNhbnMtc2VyaWYiIGZvbnQtc2l6ZT0iMTEiIGxlbmd0aEFkanVzdD0ic3BhY2luZyIgdGV4dExlbmd0aD0iMTQ0IiB4PSI1NDYiIHk9IjI3Ni43MDMxIj5Ob3RpZmljYXRpb24gaW5mb3JtYXRpb248L3RleHQ+PHRleHQgZmlsbD0iIzAwMDAwMCIgZm9udC1mYW1pbHk9InNhbnMtc2VyaWYiIGZvbnQtc2l6ZT0iMTEiIGxlbmd0aEFkanVzdD0ic3BhY2luZyIgdGV4dExlbmd0aD0iMTE0IiB4PSI1NTgiIHk9IjI4OC40NzY2Ij5tZWV0cyByZXF1aXJlbWVudHM/PC90ZXh0Pjx0ZXh0IGZpbGw9IiMwMDAwMDAiIGZvbnQtZmFtaWx5PSJzYW5zLXNlcmlmIiBmb250LXNpemU9IjExIiBsZW5ndGhBZGp1c3Q9InNwYWNpbmciIHRleHRMZW5ndGg9IjE4IiB4PSI1MTYiIHk9IjI3Ni43MDMxIj5ZZXM8L3RleHQ+PHRleHQgZmlsbD0iIzAwMDAwMCIgZm9udC1mYW1pbHk9InNhbnMtc2VyaWYiIGZvbnQtc2l6ZT0iMTEiIGxlbmd0aEFkanVzdD0ic3BhY2luZyIgdGV4dExlbmd0aD0iMTIiIHg9IjcwOCIgeT0iMjc2LjcwMzEiPk5vPC90ZXh0PjxyZWN0IGZpbGw9IiNGMUYxRjEiIGhlaWdodD0iMzIuODQzOCIgcng9IjEyLjUiIHJ5PSIxMi41IiBzdHlsZT0ic3Ryb2tlOiMxODE4MTg7c3Ryb2tlLXdpZHRoOjAuNTsiIHdpZHRoPSIxNTAiIHg9IjQ0MCIgeT0iMzAwLjA3ODEiLz48dGV4dCBmaWxsPSIjMDAwMDAwIiBmb250LWZhbWlseT0ic2Fucy1zZXJpZiIgZm9udC1zaXplPSIxMiIgbGVuZ3RoQWRqdXN0PSJzcGFjaW5nIiB0ZXh0TGVuZ3RoPSIxMzAiIHg9IjQ1MCIgeT0iMzIxLjQyMTkiPlB1Ymxpc2ggbm90aWZpY2F0aW9uPC90ZXh0PjxyZWN0IGZpbGw9IiNGMUYxRjEiIGhlaWdodD0iNDUuNjg3NSIgcng9IjEyLjUiIHJ5PSIxMi41IiBzdHlsZT0ic3Ryb2tlOiMxODE4MTg7c3Ryb2tlLXdpZHRoOjAuNTsiIHdpZHRoPSIyMTAiIHg9IjQxMCIgeT0iMzY3LjkyMTkiLz48dGV4dCBmaWxsPSIjMDAwMDAwIiBmb250LWZhbWlseT0ic2Fucy1zZXJpZiIgZm9udC1zaXplPSIxMiIgbGVuZ3RoQWRqdXN0PSJzcGFjaW5nIiB0ZXh0TGVuZ3RoPSIxODQiIHg9IjQyMCIgeT0iMzg5LjI2NTYiPkRpc3BsYXkgbm90aWZpY2F0aW9uIHJlbGVhc2U8L3RleHQ+PHRleHQgZmlsbD0iIzAwMDAwMCIgZm9udC1mYW1pbHk9InNhbnMtc2VyaWYiIGZvbnQtc2l6ZT0iMTIiIGxlbmd0aEFkanVzdD0ic3BhY2luZyIgdGV4dExlbmd0aD0iMTE4IiB4PSI0NTYiIHk9IjQwMi4xMDk0Ij5zdGF0dXMgaW5mb3JtYXRpb248L3RleHQ+PHJlY3QgZmlsbD0iI0YxRjFGMSIgaGVpZ2h0PSI0NS42ODc1IiByeD0iMTIuNSIgcnk9IjEyLjUiIHN0eWxlPSJzdHJva2U6IzE4MTgxODtzdHJva2Utd2lkdGg6MC41OyIgd2lkdGg9IjE3NCIgeD0iNjQwIiB5PSIzMDAuMDc4MSIvPjx0ZXh0IGZpbGw9IiMwMDAwMDAiIGZvbnQtZmFtaWx5PSJzYW5zLXNlcmlmIiBmb250LXNpemU9IjEyIiBsZW5ndGhBZGp1c3Q9InNwYWNpbmciIHRleHRMZW5ndGg9IjE0MiIgeD0iNjUwIiB5PSIzMjEuNDIxOSI+RGlzcGxheSBlcnJvciBtZXNzYWdlPC90ZXh0Pjx0ZXh0IGZpbGw9IiMwMDAwMDAiIGZvbnQtZmFtaWx5PSJzYW5zLXNlcmlmIiBmb250LXNpemU9IjEyIiBsZW5ndGhBZGp1c3Q9InNwYWNpbmciIHRleHRMZW5ndGg9IjE0NyIgeD0iNjU2IiB5PSIzMzQuMjY1NiI+YW5kIHJlcXVlc3QgY29ycmVjdGlvbjwvdGV4dD48cG9seWdvbiBmaWxsPSIjRjFGMUYxIiBwb2ludHM9IjYyMSw0MTkuNjA5NCw2MzMsNDMxLjYwOTQsNjIxLDQ0My42MDk0LDYwOSw0MzEuNjA5NCw2MjEsNDE5LjYwOTQiIHN0eWxlPSJzdHJva2U6IzE4MTgxODtzdHJva2Utd2lkdGg6MC41OyIvPjxyZWN0IGZpbGw9IiNGMUYxRjEiIGhlaWdodD0iMzIuODQzOCIgcng9IjEyLjUiIHJ5PSIxMi41IiBzdHlsZT0ic3Ryb2tlOiMxODE4MTg7c3Ryb2tlLXdpZHRoOjAuNTsiIHdpZHRoPSIyMzYiIHg9IjgzMyIgeT0iMjEzLjIzNDQiLz48dGV4dCBmaWxsPSIjMDAwMDAwIiBmb250LWZhbWlseT0ic2Fucy1zZXJpZiIgZm9udC1zaXplPSIxMiIgbGVuZ3RoQWRqdXN0PSJzcGFjaW5nIiB0ZXh0TGVuZ3RoPSIyMTYiIHg9Ijg0MyIgeT0iMjM0LjU3ODEiPkRlbGV0ZSB0aGUgcHVibGlzaGVkIG5vdGlmaWNhdGlvbjwvdGV4dD48cmVjdCBmaWxsPSIjRjFGMUYxIiBoZWlnaHQ9IjQ1LjY4NzUiIHJ4PSIxMi41IiByeT0iMTIuNSIgc3R5bGU9InN0cm9rZTojMTgxODE4O3N0cm9rZS13aWR0aDowLjU7IiB3aWR0aD0iMjAzIiB4PSI4NDkuNSIgeT0iMjY2LjA3ODEiLz48dGV4dCBmaWxsPSIjMDAwMDAwIiBmb250LWZhbWlseT0ic2Fucy1zZXJpZiIgZm9udC1zaXplPSIxMiIgbGVuZ3RoQWRqdXN0PSJzcGFjaW5nIiB0ZXh0TGVuZ3RoPSIxMzAiIHg9Ijg5NS41IiB5PSIyODcuNDIxOSI+RGlzcGxheSBub3RpZmljYXRpb248L3RleHQ+PHRleHQgZmlsbD0iIzAwMDAwMCIgZm9udC1mYW1pbHk9InNhbnMtc2VyaWYiIGZvbnQtc2l6ZT0iMTIiIGxlbmd0aEFkanVzdD0ic3BhY2luZyIgdGV4dExlbmd0aD0iMTc3IiB4PSI4NjUuNSIgeT0iMzAwLjI2NTYiPmRlbGV0aW9uIHN0YXR1cyBpbmZvcm1hdGlvbjwvdGV4dD48cmVjdCBmaWxsPSIjRjFGMUYxIiBoZWlnaHQ9IjMyLjg0MzgiIHJ4PSIxMi41IiByeT0iMTIuNSIgc3R5bGU9InN0cm9rZTojMTgxODE4O3N0cm9rZS13aWR0aDowLjU7IiB3aWR0aD0iMjYzIiB4PSIxMDc5IiB5PSIyMTMuMjM0NCIvPjx0ZXh0IGZpbGw9IiMwMDAwMDAiIGZvbnQtZmFtaWx5PSJzYW5zLXNlcmlmIiBmb250LXNpemU9IjEyIiBsZW5ndGhBZGp1c3Q9InNwYWNpbmciIHRleHRMZW5ndGg9IjI0MyIgeD0iMTA4OSIgeT0iMjM0LjU3ODEiPlNlYXJjaCBmb3IgdGhlIHB1Ymxpc2hlZCBub3RpZmljYXRpb248L3RleHQ+PHJlY3QgZmlsbD0iI0YxRjFGMSIgaGVpZ2h0PSIzMi44NDM4IiByeD0iMTIuNSIgcnk9IjEyLjUiIHN0eWxlPSJzdHJva2U6IzE4MTgxODtzdHJva2Utd2lkdGg6MC41OyIgd2lkdGg9IjE2NyIgeD0iMTEyNyIgeT0iMjY2LjA3ODEiLz48dGV4dCBmaWxsPSIjMDAwMDAwIiBmb250LWZhbWlseT0ic2Fucy1zZXJpZiIgZm9udC1zaXplPSIxMiIgbGVuZ3RoQWRqdXN0PSJzcGFjaW5nIiB0ZXh0TGVuZ3RoPSIxNDciIHg9IjExMzciIHk9IjI4Ny40MjE5Ij5EaXNwbGF5IHNlYXJjaCByZXN1bHRzPC90ZXh0PjxyZWN0IGZpbGw9IiNGMUYxRjEiIGhlaWdodD0iMzIuODQzOCIgcng9IjEyLjUiIHJ5PSIxMi41IiBzdHlsZT0ic3Ryb2tlOiMxODE4MTg7c3Ryb2tlLXdpZHRoOjAuNTsiIHdpZHRoPSIxODciIHg9IjExMTciIHk9IjMzMy45MjE5Ii8+PHRleHQgZmlsbD0iIzAwMDAwMCIgZm9udC1mYW1pbHk9InNhbnMtc2VyaWYiIGZvbnQtc2l6ZT0iMTIiIGxlbmd0aEFkanVzdD0ic3BhY2luZyIgdGV4dExlbmd0aD0iMTY3IiB4PSIxMTI3IiB5PSIzNTUuMjY1NiI+VXNlciB2aWV3cyBzZWFyY2ggcmVzdWx0czwvdGV4dD48cG9seWdvbiBmaWxsPSIjRjFGMUYxIiBwb2ludHM9IjY2Nyw0NTMuNjA5NCw2NjcsNDUzLjYwOTQsNjc5LDQ2NS42MDk0LDY2Nyw0NzcuNjA5NCw2NjcsNDc3LjYwOTQsNjU1LDQ2NS42MDk0LDY2Nyw0NTMuNjA5NCIgc3R5bGU9InN0cm9rZTojMTgxODE4O3N0cm9rZS13aWR0aDowLjU7Ii8+PGVsbGlwc2UgY3g9IjY2NyIgY3k9IjUwOC42MDk0IiBmaWxsPSJub25lIiByeD0iMTEiIHJ5PSIxMSIgc3R5bGU9InN0cm9rZTojMjIyMjIyO3N0cm9rZS13aWR0aDoxLjA7Ii8+PGVsbGlwc2UgY3g9IjY2NyIgY3k9IjUwOC42MDk0IiBmaWxsPSIjMjIyMjIyIiByeD0iNiIgcnk9IjYiIHN0eWxlPSJzdHJva2U6IzExMTExMTtzdHJva2Utd2lkdGg6MS4wOyIvPjxsaW5lIHN0eWxlPSJzdHJva2U6IzE4MTgxODtzdHJva2Utd2lkdGg6MS4wOyIgeDE9IjY2NyIgeDI9IjY2NyIgeTE9IjMwIiB5Mj0iNTAiLz48cG9seWdvbiBmaWxsPSIjMTgxODE4IiBwb2ludHM9IjY2Myw0MCw2NjcsNTAsNjcxLDQwLDY2Nyw0NCIgc3R5bGU9InN0cm9rZTojMTgxODE4O3N0cm9rZS13aWR0aDoxLjA7Ii8+PGxpbmUgc3R5bGU9InN0cm9rZTojMTgxODE4O3N0cm9rZS13aWR0aDoxLjA7IiB4MT0iNjY3IiB4Mj0iNjY3IiB5MT0iODIuODQzOCIgeTI9IjEwMi44NDM4Ii8+PHBvbHlnb24gZmlsbD0iIzE4MTgxOCIgcG9pbnRzPSI2NjMsOTIuODQzOCw2NjcsMTAyLjg0MzgsNjcxLDkyLjg0MzgsNjY3LDk2Ljg0MzgiIHN0eWxlPSJzdHJva2U6IzE4MTgxODtzdHJva2Utd2lkdGg6MS4wOyIvPjxsaW5lIHN0eWxlPSJzdHJva2U6IzE4MTgxODtzdHJva2Utd2lkdGg6MS4wOyIgeDE9IjExMCIgeDI9IjExMCIgeTE9IjMzMi45MjE5IiB5Mj0iMzY3LjkyMTkiLz48cG9seWdvbiBmaWxsPSIjMTgxODE4IiBwb2ludHM9IjEwNiwzNTcuOTIxOSwxMTAsMzY3LjkyMTksMTE0LDM1Ny45MjE5LDExMCwzNjEuOTIxOSIgc3R5bGU9InN0cm9rZTojMTgxODE4O3N0cm9rZS13aWR0aDoxLjA7Ii8+PGxpbmUgc3R5bGU9InN0cm9rZTojMTgxODE4O3N0cm9rZS13aWR0aDoxLjA7IiB4MT0iMTMxLjI1IiB4Mj0iMTEwIiB5MT0iMjc4LjA3ODEiIHkyPSIyNzguMDc4MSIvPjxsaW5lIHN0eWxlPSJzdHJva2U6IzE4MTgxODtzdHJva2Utd2lkdGg6MS4wOyIgeDE9IjExMCIgeDI9IjExMCIgeTE9IjI3OC4wNzgxIiB5Mj0iMzAwLjA3ODEiLz48cG9seWdvbiBmaWxsPSIjMTgxODE4IiBwb2ludHM9IjEwNiwyOTAuMDc4MSwxMTAsMzAwLjA3ODEsMTE0LDI5MC4wNzgxLDExMCwyOTQuMDc4MSIgc3R5bGU9InN0cm9rZTojMTgxODE4O3N0cm9rZS13aWR0aDoxLjA7Ii8+PGxpbmUgc3R5bGU9InN0cm9rZTojMTgxODE4O3N0cm9rZS13aWR0aDoxLjA7IiB4MT0iMjkzLjI1IiB4Mj0iMzE0LjUiIHkxPSIyNzguMDc4MSIgeTI9IjI3OC4wNzgxIi8+PGxpbmUgc3R5bGU9InN0cm9rZTojMTgxODE4O3N0cm9rZS13aWR0aDoxLjA7IiB4MT0iMzE0LjUiIHgyPSIzMTQuNSIgeTE9IjI3OC4wNzgxIiB5Mj0iMzAwLjA3ODEiLz48cG9seWdvbiBmaWxsPSIjMTgxODE4IiBwb2ludHM9IjMxMC41LDI5MC4wNzgxLDMxNC41LDMwMC4wNzgxLDMxOC41LDI5MC4wNzgxLDMxNC41LDI5NC4wNzgxIiBzdHlsZT0ic3Ryb2tlOiMxODE4MTg7c3Ryb2tlLXdpZHRoOjEuMDsiLz48bGluZSBzdHlsZT0ic3Ryb2tlOiMxODE4MTg7c3Ryb2tlLXdpZHRoOjEuMDsiIHgxPSIxMTAiIHgyPSIxMTAiIHkxPSI0MTMuNjA5NCIgeTI9IjQzMS42MDk0Ii8+PGxpbmUgc3R5bGU9InN0cm9rZTojMTgxODE4O3N0cm9rZS13aWR0aDoxLjA7IiB4MT0iMTEwIiB4Mj0iMjAwLjI1IiB5MT0iNDMxLjYwOTQiIHkyPSI0MzEuNjA5NCIvPjxwb2x5Z29uIGZpbGw9IiMxODE4MTgiIHBvaW50cz0iMTkwLjI1LDQyNy42MDk0LDIwMC4yNSw0MzEuNjA5NCwxOTAuMjUsNDM1LjYwOTQsMTk0LjI1LDQzMS42MDk0IiBzdHlsZT0ic3Ryb2tlOiMxODE4MTg7c3Ryb2tlLXdpZHRoOjEuMDsiLz48bGluZSBzdHlsZT0ic3Ryb2tlOiMxODE4MTg7c3Ryb2tlLXdpZHRoOjEuMDsiIHgxPSIzMTQuNSIgeDI9IjMxNC41IiB5MT0iMzQ1Ljc2NTYiIHkyPSI0MzEuNjA5NCIvPjxsaW5lIHN0eWxlPSJzdHJva2U6IzE4MTgxODtzdHJva2Utd2lkdGg6MS4wOyIgeDE9IjMxNC41IiB4Mj0iMjI0LjI1IiB5MT0iNDMxLjYwOTQiIHkyPSI0MzEuNjA5NCIvPjxwb2x5Z29uIGZpbGw9IiMxODE4MTgiIHBvaW50cz0iMjM0LjI1LDQyNy42MDk0LDIyNC4yNSw0MzEuNjA5NCwyMzQuMjUsNDM1LjYwOTQsMjMwLjI1LDQzMS42MDk0IiBzdHlsZT0ic3Ryb2tlOiMxODE4MTg7c3Ryb2tlLXdpZHRoOjEuMDsiLz48bGluZSBzdHlsZT0ic3Ryb2tlOiMxODE4MTg7c3Ryb2tlLXdpZHRoOjEuMDsiIHgxPSIyMTIuMjUiIHgyPSIyMTIuMjUiIHkxPSIyNDYuMDc4MSIgeTI9IjI2Ni4wNzgxIi8+PHBvbHlnb24gZmlsbD0iIzE4MTgxOCIgcG9pbnRzPSIyMDguMjUsMjU2LjA3ODEsMjEyLjI1LDI2Ni4wNzgxLDIxNi4yNSwyNTYuMDc4MSwyMTIuMjUsMjYwLjA3ODEiIHN0eWxlPSJzdHJva2U6IzE4MTgxODtzdHJva2Utd2lkdGg6MS4wOyIvPjxsaW5lIHN0eWxlPSJzdHJva2U6IzE4MTgxODtzdHJva2Utd2lkdGg6MS4wOyIgeDE9IjUxNSIgeDI9IjUxNSIgeTE9IjMzMi45MjE5IiB5Mj0iMzY3LjkyMTkiLz48cG9seWdvbiBmaWxsPSIjMTgxODE4IiBwb2ludHM9IjUxMSwzNTcuOTIxOSw1MTUsMzY3LjkyMTksNTE5LDM1Ny45MjE5LDUxNSwzNjEuOTIxOSIgc3R5bGU9InN0cm9rZTojMTgxODE4O3N0cm9rZS13aWR0aDoxLjA7Ii8+PGxpbmUgc3R5bGU9InN0cm9rZTojMTgxODE4O3N0cm9rZS13aWR0aDoxLjA7IiB4MT0iNTM0IiB4Mj0iNTE1IiB5MT0iMjc4LjA3ODEiIHkyPSIyNzguMDc4MSIvPjxsaW5lIHN0eWxlPSJzdHJva2U6IzE4MTgxODtzdHJva2Utd2lkdGg6MS4wOyIgeDE9IjUxNSIgeDI9IjUxNSIgeTE9IjI3OC4wNzgxIiB5Mj0iMzAwLjA3ODEiLz48cG9seWdvbiBmaWxsPSIjMTgxODE4IiBwb2ludHM9IjUxMSwyOTAuMDc4MSw1MTUsMzAwLjA3ODEsNTE5LDI5MC4wNzgxLDUxNSwyOTQuMDc4MSIgc3R5bGU9InN0cm9rZTojMTgxODE4O3N0cm9rZS13aWR0aDoxLjA7Ii8+PGxpbmUgc3R5bGU9InN0cm9rZTojMTgxODE4O3N0cm9rZS13aWR0aDoxLjA7IiB4MT0iNzA4IiB4Mj0iNzI3IiB5MT0iMjc4LjA3ODEiIHkyPSIyNzguMDc4MSIvPjxsaW5lIHN0eWxlPSJzdHJva2U6IzE4MTgxODtzdHJva2Utd2lkdGg6MS4wOyIgeDE9IjcyNyIgeDI9IjcyNyIgeTE9IjI3OC4wNzgxIiB5Mj0iMzAwLjA3ODEiLz48cG9seWdvbiBmaWxsPSIjMTgxODE4IiBwb2ludHM9IjcyMywyOTAuMDc4MSw3MjcsMzAwLjA3ODEsNzMxLDI5MC4wNzgxLDcyNywyOTQuMDc4MSIgc3R5bGU9InN0cm9rZTojMTgxODE4O3N0cm9rZS13aWR0aDoxLjA7Ii8+PGxpbmUgc3R5bGU9InN0cm9rZTojMTgxODE4O3N0cm9rZS13aWR0aDoxLjA7IiB4MT0iNTE1IiB4Mj0iNTE1IiB5MT0iNDEzLjYwOTQiIHkyPSI0MzEuNjA5NCIvPjxsaW5lIHN0eWxlPSJzdHJva2U6IzE4MTgxODtzdHJva2Utd2lkdGg6MS4wOyIgeDE9IjUxNSIgeDI9IjYwOSIgeTE9IjQzMS42MDk0IiB5Mj0iNDMxLjYwOTQiLz48cG9seWdvbiBmaWxsPSIjMTgxODE4IiBwb2ludHM9IjU5OSw0MjcuNjA5NCw2MDksNDMxLjYwOTQsNTk5LDQzNS42MDk0LDYwMyw0MzEuNjA5NCIgc3R5bGU9InN0cm9rZTojMTgxODE4O3N0cm9rZS13aWR0aDoxLjA7Ii8+PGxpbmUgc3R5bGU9InN0cm9rZTojMTgxODE4O3N0cm9rZS13aWR0aDoxLjA7IiB4MT0iNzI3IiB4Mj0iNzI3IiB5MT0iMzQ1Ljc2NTYiIHkyPSI0MzEuNjA5NCIvPjxsaW5lIHN0eWxlPSJzdHJva2U6IzE4MTgxODtzdHJva2Utd2lkdGg6MS4wOyIgeDE9IjcyNyIgeDI9IjYzMyIgeTE9IjQzMS42MDk0IiB5Mj0iNDMxLjYwOTQiLz48cG9seWdvbiBmaWxsPSIjMTgxODE4IiBwb2ludHM9IjY0Myw0MjcuNjA5NCw2MzMsNDMxLjYwOTQsNjQzLDQzNS42MDk0LDYzOSw0MzEuNjA5NCIgc3R5bGU9InN0cm9rZTojMTgxODE4O3N0cm9rZS13aWR0aDoxLjA7Ii8+PGxpbmUgc3R5bGU9InN0cm9rZTojMTgxODE4O3N0cm9rZS13aWR0aDoxLjA7IiB4MT0iNjIxIiB4Mj0iNjIxIiB5MT0iMjQ2LjA3ODEiIHkyPSIyNjYuMDc4MSIvPjxwb2x5Z29uIGZpbGw9IiMxODE4MTgiIHBvaW50cz0iNjE3LDI1Ni4wNzgxLDYyMSwyNjYuMDc4MSw2MjUsMjU2LjA3ODEsNjIxLDI2MC4wNzgxIiBzdHlsZT0ic3Ryb2tlOiMxODE4MTg7c3Ryb2tlLXdpZHRoOjEuMDsiLz48bGluZSBzdHlsZT0ic3Ryb2tlOiMxODE4MTg7c3Ryb2tlLXdpZHRoOjEuMDsiIHgxPSI5NTEiIHgyPSI5NTEiIHkxPSIyNDYuMDc4MSIgeTI9IjI2Ni4wNzgxIi8+PHBvbHlnb24gZmlsbD0iIzE4MTgxOCIgcG9pbnRzPSI5NDcsMjU2LjA3ODEsOTUxLDI2Ni4wNzgxLDk1NSwyNTYuMDc4MSw5NTEsMjYwLjA3ODEiIHN0eWxlPSJzdHJva2U6IzE4MTgxODtzdHJva2Utd2lkdGg6MS4wOyIvPjxsaW5lIHN0eWxlPSJzdHJva2U6IzE4MTgxODtzdHJva2Utd2lkdGg6MS4wOyIgeDE9IjEyMTAuNSIgeDI9IjEyMTAuNSIgeTE9IjI0Ni4wNzgxIiB5Mj0iMjY2LjA3ODEiLz48cG9seWdvbiBmaWxsPSIjMTgxODE4IiBwb2ludHM9IjEyMDYuNSwyNTYuMDc4MSwxMjEwLjUsMjY2LjA3ODEsMTIxNC41LDI1Ni4wNzgxLDEyMTAuNSwyNjAuMDc4MSIgc3R5bGU9InN0cm9rZTojMTgxODE4O3N0cm9rZS13aWR0aDoxLjA7Ii8+PGxpbmUgc3R5bGU9InN0cm9rZTojMTgxODE4O3N0cm9rZS13aWR0aDoxLjA7IiB4MT0iMTIxMC41IiB4Mj0iMTIxMC41IiB5MT0iMjk4LjkyMTkiIHkyPSIzMzMuOTIxOSIvPjxwb2x5Z29uIGZpbGw9IiMxODE4MTgiIHBvaW50cz0iMTIwNi41LDMyMy45MjE5LDEyMTAuNSwzMzMuOTIxOSwxMjE0LjUsMzIzLjkyMTksMTIxMC41LDMyNy45MjE5IiBzdHlsZT0ic3Ryb2tlOiMxODE4MTg7c3Ryb2tlLXdpZHRoOjEuMDsiLz48bGluZSBzdHlsZT0ic3Ryb2tlOiMxODE4MTg7c3Ryb2tlLXdpZHRoOjEuMDsiIHgxPSI2MzQiIHgyPSIyMTIuMjUiIHkxPSIxNjcuNjg3NSIgeTI9IjE2Ny42ODc1Ii8+PGxpbmUgc3R5bGU9InN0cm9rZTojMTgxODE4O3N0cm9rZS13aWR0aDoxLjA7IiB4MT0iMjEyLjI1IiB4Mj0iMjEyLjI1IiB5MT0iMTY3LjY4NzUiIHkyPSIyMTMuMjM0NCIvPjxwb2x5Z29uIGZpbGw9IiMxODE4MTgiIHBvaW50cz0iMjA4LjI1LDIwMy4yMzQ0LDIxMi4yNSwyMTMuMjM0NCwyMTYuMjUsMjAzLjIzNDQsMjEyLjI1LDIwNy4yMzQ0IiBzdHlsZT0ic3Ryb2tlOiMxODE4MTg7c3Ryb2tlLXdpZHRoOjEuMDsiLz48dGV4dCBmaWxsPSIjMDAwMDAwIiBmb250LWZhbWlseT0ic2Fucy1zZXJpZiIgZm9udC1zaXplPSIxMSIgbGVuZ3RoQWRqdXN0PSJzcGFjaW5nIiB0ZXh0TGVuZ3RoPSIxOCIgeD0iMjEyLjI1IiB5PSIxOTQuOTcyNyI+QWRkPC90ZXh0PjxsaW5lIHN0eWxlPSJzdHJva2U6IzE4MTgxODtzdHJva2Utd2lkdGg6MS4wOyIgeDE9IjcwMCIgeDI9IjEyMTAuNSIgeTE9IjE2Ny42ODc1IiB5Mj0iMTY3LjY4NzUiLz48bGluZSBzdHlsZT0ic3Ryb2tlOiMxODE4MTg7c3Ryb2tlLXdpZHRoOjEuMDsiIHgxPSIxMjEwLjUiIHgyPSIxMjEwLjUiIHkxPSIxNjcuNjg3NSIgeTI9IjIxMy4yMzQ0Ii8+PHBvbHlnb24gZmlsbD0iIzE4MTgxOCIgcG9pbnRzPSIxMjA2LjUsMjAzLjIzNDQsMTIxMC41LDIxMy4yMzQ0LDEyMTQuNSwyMDMuMjM0NCwxMjEwLjUsMjA3LjIzNDQiIHN0eWxlPSJzdHJva2U6IzE4MTgxODtzdHJva2Utd2lkdGg6MS4wOyIvPjx0ZXh0IGZpbGw9IiMwMDAwMDAiIGZvbnQtZmFtaWx5PSJzYW5zLXNlcmlmIiBmb250LXNpemU9IjExIiBsZW5ndGhBZGp1c3Q9InNwYWNpbmciIHRleHRMZW5ndGg9IjM2IiB4PSIxMjEwLjUiIHk9IjE5NC45NzI3Ij5TZWFyY2g8L3RleHQ+PGxpbmUgc3R5bGU9InN0cm9rZTojMTgxODE4O3N0cm9rZS13aWR0aDoxLjA7IiB4MT0iNjIxIiB4Mj0iNjIxIiB5MT0iMTY3LjY4NzUiIHkyPSIyMTMuMjM0NCIvPjxwb2x5Z29uIGZpbGw9IiMxODE4MTgiIHBvaW50cz0iNjE3LDIwMy4yMzQ0LDYyMSwyMTMuMjM0NCw2MjUsMjAzLjIzNDQsNjIxLDIwNy4yMzQ0IiBzdHlsZT0ic3Ryb2tlOiMxODE4MTg7c3Ryb2tlLXdpZHRoOjEuMDsiLz48dGV4dCBmaWxsPSIjMDAwMDAwIiBmb250LWZhbWlseT0ic2Fucy1zZXJpZiIgZm9udC1zaXplPSIxMSIgbGVuZ3RoQWRqdXN0PSJzcGFjaW5nIiB0ZXh0TGVuZ3RoPSIyNCIgeD0iNjIxIiB5PSIxODkuOTcyNyI+RWRpdDwvdGV4dD48bGluZSBzdHlsZT0ic3Ryb2tlOiMxODE4MTg7c3Ryb2tlLXdpZHRoOjEuMDsiIHgxPSI5NTEiIHgyPSI5NTEiIHkxPSIxNjcuNjg3NSIgeTI9IjIxMy4yMzQ0Ii8+PHBvbHlnb24gZmlsbD0iIzE4MTgxOCIgcG9pbnRzPSI5NDcsMjAzLjIzNDQsOTUxLDIxMy4yMzQ0LDk1NSwyMDMuMjM0NCw5NTEsMjA3LjIzNDQiIHN0eWxlPSJzdHJva2U6IzE4MTgxODtzdHJva2Utd2lkdGg6MS4wOyIvPjx0ZXh0IGZpbGw9IiMwMDAwMDAiIGZvbnQtZmFtaWx5PSJzYW5zLXNlcmlmIiBmb250LXNpemU9IjExIiBsZW5ndGhBZGp1c3Q9InNwYWNpbmciIHRleHRMZW5ndGg9IjM2IiB4PSI5NTEiIHk9IjE4OS45NzI3Ij5EZWxldGU8L3RleHQ+PGxpbmUgc3R5bGU9InN0cm9rZTojMTgxODE4O3N0cm9rZS13aWR0aDoxLjA7IiB4MT0iMjEyLjI1IiB4Mj0iMjEyLjI1IiB5MT0iNDQzLjYwOTQiIHkyPSI0NjUuNjA5NCIvPjxsaW5lIHN0eWxlPSJzdHJva2U6IzE4MTgxODtzdHJva2Utd2lkdGg6MS4wOyIgeDE9IjIxMi4yNSIgeDI9IjY1NSIgeTE9IjQ2NS42MDk0IiB5Mj0iNDY1LjYwOTQiLz48cG9seWdvbiBmaWxsPSIjMTgxODE4IiBwb2ludHM9IjY0NSw0NjEuNjA5NCw2NTUsNDY1LjYwOTQsNjQ1LDQ2OS42MDk0LDY0OSw0NjUuNjA5NCIgc3R5bGU9InN0cm9rZTojMTgxODE4O3N0cm9rZS13aWR0aDoxLjA7Ii8+PGxpbmUgc3R5bGU9InN0cm9rZTojMTgxODE4O3N0cm9rZS13aWR0aDoxLjA7IiB4MT0iMTIxMC41IiB4Mj0iMTIxMC41IiB5MT0iMzY2Ljc2NTYiIHkyPSI0NjUuNjA5NCIvPjxsaW5lIHN0eWxlPSJzdHJva2U6IzE4MTgxODtzdHJva2Utd2lkdGg6MS4wOyIgeDE9IjEyMTAuNSIgeDI9IjY3OSIgeTE9IjQ2NS42MDk0IiB5Mj0iNDY1LjYwOTQiLz48cG9seWdvbiBmaWxsPSIjMTgxODE4IiBwb2ludHM9IjY4OSw0NjEuNjA5NCw2NzksNDY1LjYwOTQsNjg5LDQ2OS42MDk0LDY4NSw0NjUuNjA5NCIgc3R5bGU9InN0cm9rZTojMTgxODE4O3N0cm9rZS13aWR0aDoxLjA7Ii8+PGxpbmUgc3R5bGU9InN0cm9rZTojMTgxODE4O3N0cm9rZS13aWR0aDoxLjA7IiB4MT0iNjIxIiB4Mj0iNjIxIiB5MT0iNDQzLjYwOTQiIHkyPSI0NjUuNjA5NCIvPjxwb2x5Z29uIGZpbGw9IiMxODE4MTgiIHBvaW50cz0iNjE3LDQ1NS42MDk0LDYyMSw0NjUuNjA5NCw2MjUsNDU1LjYwOTQsNjIxLDQ1OS42MDk0IiBzdHlsZT0ic3Ryb2tlOiMxODE4MTg7c3Ryb2tlLXdpZHRoOjEuMDsiLz48bGluZSBzdHlsZT0ic3Ryb2tlOiMxODE4MTg7c3Ryb2tlLXdpZHRoOjEuMDsiIHgxPSI5NTEiIHgyPSI5NTEiIHkxPSIzMTEuNzY1NiIgeTI9IjQ2NS42MDk0Ii8+PHBvbHlnb24gZmlsbD0iIzE4MTgxOCIgcG9pbnRzPSI5NDcsNDU1LjYwOTQsOTUxLDQ2NS42MDk0LDk1NSw0NTUuNjA5NCw5NTEsNDU5LjYwOTQiIHN0eWxlPSJzdHJva2U6IzE4MTgxODtzdHJva2Utd2lkdGg6MS4wOyIvPjxsaW5lIHN0eWxlPSJzdHJva2U6IzE4MTgxODtzdHJva2Utd2lkdGg6MS4wOyIgeDE9IjY2NyIgeDI9IjY2NyIgeTE9IjEzNS42ODc1IiB5Mj0iMTU1LjY4NzUiLz48cG9seWdvbiBmaWxsPSIjMTgxODE4IiBwb2ludHM9IjY2MywxNDUuNjg3NSw2NjcsMTU1LjY4NzUsNjcxLDE0NS42ODc1LDY2NywxNDkuNjg3NSIgc3R5bGU9InN0cm9rZTojMTgxODE4O3N0cm9rZS13aWR0aDoxLjA7Ii8+PGxpbmUgc3R5bGU9InN0cm9rZTojMTgxODE4O3N0cm9rZS13aWR0aDoxLjA7IiB4MT0iNjY3IiB4Mj0iNjY3IiB5MT0iNDc3LjYwOTQiIHkyPSI0OTcuNjA5NCIvPjxwb2x5Z29uIGZpbGw9IiMxODE4MTgiIHBvaW50cz0iNjYzLDQ4Ny42MDk0LDY2Nyw0OTcuNjA5NCw2NzEsNDg3LjYwOTQsNjY3LDQ5MS42MDk0IiBzdHlsZT0ic3Ryb2tlOiMxODE4MTg7c3Ryb2tlLXdpZHRoOjEuMDsiLz48IS0tU1JDPVtmTEYxUmk4bTNCdHRBdG1pcWxPM3ZPMmNtTTY3Q0pJcW13SFRHa0JJSTZhMmlKazRuQ1ZGSUxNczNaR0VveUw5UlJfZHp6QVM3YnN0V1BVd2pYaFo3VUpKQVk5UFd2dkYxUjZBTjVHQnBuWFg2VFhBZE04UkZBb0ZuRFoyS3loS0lrRXFnRFJlSzNDeUF3LXNzNGhfS0NHMTVpUm8yNjFRcUM2b1JhZ2JxdDRzQVJHWUIxLUNjSEcwYktKbWV0ODBNcUZ2WWxsRUhaSEdNdEk2OTNZN1BaTzFSajEzLU93S3NqRWdManQ2TU1la083QW8zdERCRXdVRWVuQTAzbXpIZkNXdThGZ3Y4eDItM2g0ejh3MkpMQmFDRkxLcmU2MkM4S0FCSEE4X2VJWGwxNmRWOFI3NC1wSWh6VGtDdThzalV5TjljSXB2RVNZdE9uODJrdHZxbEV4MXcxdi1aOU9lWEh3UENnbE9iMncxQml0dm12aGdnWU0zN09hV2hOX095amlON005NFZPUnV6Y0trZDhwUGNOdnhtdmJSTHNlSUkzZlM2cHVwaGI1NXRNSjZWV2pJU09qcnVBRS1HdnZFdnZYb3dldGFxTm5RRkQxNWpYMlhfVnpWbzFpQmtveTBdLS0+PC9nPjwvc3ZnPg==;" vertex="1" parent="1">
            <mxGeometry x="1110" y="-880" width="1353" height="530" as="geometry" />
          </mxCell>
        </UserObject>
      </root>
    </mxGraphModel>
  </diagram>
</mxfile>
